<svg id="Capa_1" enable-background="new 0 0 512 512" height="512" viewBox="0 0 512 512" width="512" xmlns="http://www.w3.org/2000/svg"><g id="XMLID_4522_"><g id="XMLID_4526_"><path id="XMLID_3804_" d="m297.764 279.069c-1.578-3.715-4.587-6.637-8.346-8.107l-152.241-59.48c-7.589-2.966-16.162.674-19.299 8.197l-27.291 65.445c-1.553 3.726-1.539 7.92.038 11.635 1.578 3.714 4.587 6.636 8.347 8.106l152.24 59.48c1.793.7 3.637 1.032 5.454 1.032 5.88 0 11.449-3.482 13.846-9.229l27.291-65.445c1.553-3.725 1.539-7.919-.039-11.634z" fill="#ced2e1"/><path id="XMLID_3802_" d="m483.943 321.67c-1.578-3.715-4.587-6.637-8.346-8.107l-67.325-26.304c-7.594-2.967-16.162.674-19.3 8.197l-48.905 117.276c-1.553 3.726-1.54 7.919.038 11.635 1.578 3.715 4.587 6.636 8.346 8.106l67.325 26.304c1.793.7 3.637 1.032 5.454 1.032 5.88 0 11.449-3.482 13.846-9.229l48.905-117.276c1.553-3.725 1.539-7.919-.038-11.634z" fill="#4895ff"/><g id="XMLID_4529_"><g><g id="XMLID_68_"><path d="m483.981 333.305c1.553-3.726 1.54-7.919-.038-11.635s-4.587-6.637-8.346-8.107l-67.325-26.304c-7.594-2.967-16.162.674-19.3 8.197l-24.566 58.911 95.271 37.222z" fill="#005fe1"/></g></g></g><g id="XMLID_4528_"><path id="XMLID_3799_" d="m297.802 290.703c1.553-3.726 1.54-7.919-.038-11.635-1.578-3.715-4.587-6.637-8.346-8.107l-152.241-59.48c-7.589-2.966-16.162.674-19.299 8.197l-13.76 32.996 180.186 70.398z" fill="#9196a9"/></g><path id="XMLID_3798_" d="m510.807 307.461c-1.578-3.715-4.587-6.637-8.346-8.107l-226.03-88.309c-31.823-12.433-68.217 2.652-81.133 33.625l-31.06 74.484c-6.238 14.958-6.184 31.41.151 46.327 6.497 15.297 18.75 27.11 34.504 33.265l163.403 63.84c1.793.7 3.637 1.032 5.454 1.032 5.88 0 11.449-3.482 13.846-9.229l41.064-98.475 67.508-7.381c5.431-.594 10.108-4.094 12.212-9.136l8.466-20.302c1.552-3.725 1.538-7.919-.039-11.634z" fill="#dce1ea"/><g id="XMLID_4527_"><path id="XMLID_3797_" d="m422.659 355.915 67.508-7.381c5.431-.594 10.108-4.094 12.212-9.136l8.466-20.302c1.553-3.726 1.54-7.919-.038-11.634s-4.587-6.637-8.346-8.107l-226.03-88.309c-31.823-12.433-68.217 2.652-81.133 33.625l-15.644 37.515 235.4 91.97z" fill="#ced2e1"/></g><path id="XMLID_3796_" d="m158.514 96.235h-81.045c-8.283 0-14.997 6.715-14.997 14.997v141.896c0 30.613 24.906 55.52 55.52 55.52 30.613 0 55.519-24.906 55.519-55.52v-141.895c0-8.283-6.715-14.998-14.997-14.998z" fill="#ced2e1"/><path id="XMLID_3795_" d="m220.985 48.381h-205.988c-8.282 0-14.997 6.715-14.997 14.997v59.256c0 8.283 6.715 14.997 14.997 14.997h205.988c8.283 0 14.997-6.715 14.997-14.997v-59.256c.001-8.282-6.714-14.997-14.997-14.997z" fill="#bec3d2"/></g><g id="XMLID_4525_"><path id="XMLID_3794_" d="m77.469 96.235c-8.283 0-14.997 6.715-14.997 14.997v141.896c0 30.613 24.906 55.52 55.519 55.52v-212.413z" fill="#e9ecf4"/></g><g id="XMLID_4524_"><path id="XMLID_3793_" d="m14.997 48.381c-8.282 0-14.997 6.715-14.997 14.997v59.256c0 8.283 6.715 14.997 14.997 14.997h102.994v-89.25z" fill="#dce1ea"/></g><g id="XMLID_3790_"><ellipse id="XMLID_3791_" cx="117.991" cy="258.103" fill="#005fe1" rx="14.993" ry="14.512"/></g><g id="XMLID_4523_"><path id="XMLID_3788_" d="m104.088 252.671c-3.099 7.432.613 15.89 8.291 18.89 1.841.719 3.742 1.05 5.612 1.049v-29.014c-5.931.002-11.547 3.424-13.903 9.075z" fill="#4895ff"/></g></g></svg>