<svg id="Capa_1" enable-background="new 0 0 511.998 511.998" height="512" viewBox="0 0 511.998 511.998" width="512" xmlns="http://www.w3.org/2000/svg"><circle cx="353.935" cy="203.778" fill="#64e0c4" r="150.563"/><path d="m321.63 342.474c0 2.8-.07 5.58-.21 8.34-67.53-14.86-118.05-75.05-118.05-147.04 0-6.15.37-12.21 1.09-18.17 67.66 20.05 117.17 82.79 117.17 156.87z" fill="#27d1b3"/><path d="m504.5 203.778c0 83.156-67.409 150.565-150.565 150.565-4.111 0-8.193-.17-12.224-.489 77.438-6.227 138.341-71.032 138.341-150.076s-60.904-143.85-138.342-150.077c4.032-.319 8.113-.489 12.224-.489 83.157.001 150.566 67.41 150.566 150.566z" fill="#27d1b3"/><circle cx="158.063" cy="342.469" fill="#fee265" r="150.563"/><path d="m308.628 342.469c0 83.156-67.409 150.565-150.565 150.565-4.111 0-8.193-.17-12.224-.489 77.438-6.227 138.341-71.032 138.341-150.076s-60.904-143.849-138.342-150.076c4.032-.319 8.113-.489 12.224-.489 83.157 0 150.566 67.409 150.566 150.565z" fill="#fdd330"/><path d="m235.871 325.332c3.042 0 5.406 2.699 4.957 5.707-2.756 18.435-18.656 32.574-37.858 32.574-19.202 0-35.103-14.139-37.858-32.574-.45-3.009 1.915-5.707 4.957-5.707z" fill="#fc7cb6"/><path d="m151.063 105.887-10.085 7.348c-3.475 2.532-8.286 2.105-11.261-.999l-41.19-42.976c-3.6-3.756-3.062-9.824 1.143-12.888l22.99-16.75c4.205-3.064 10.146-1.716 12.618 2.861l28.285 52.378c2.043 3.784.975 8.494-2.5 11.026z" fill="#fee265"/><path d="m125.283 42.483 28.277 52.377c2.044 3.783.979 8.492-2.5 11.026l-10.082 7.346c-.319.233-.647.439-.988.613 2.764-2.641 3.471-6.834 1.613-10.274l-28.284-52.371c-2.466-4.581-8.41-5.926-12.618-2.86l11.963-8.716c4.202-3.061 10.146-1.716 12.619 2.859z" fill="#fdd330"/><path d="m123.681 152.975-6.963 10.354c-2.399 3.568-7.066 4.812-10.923 2.913l-53.405-26.296c-4.667-2.298-6.237-8.184-3.334-12.501l15.874-23.603c2.903-4.317 8.947-5.083 12.836-1.627l44.494 39.545c3.213 2.856 3.82 7.647 1.421 11.215z" fill="#fee265"/><path d="m77.77 102.212 44.486 39.547c3.215 2.856 3.824 7.645 1.422 11.216l-6.961 10.351c-.221.328-.458.634-.719.914 1.694-3.427.924-7.609-1.998-10.206l-44.491-39.54c-3.884-3.461-9.93-2.692-12.835 1.628l8.261-12.282c2.9-4.313 8.946-5.082 12.835-1.628z" fill="#fdd330"/><path d="m203.678 94.705-11.99 3.455c-4.131 1.191-8.506-.856-10.24-4.79l-24.008-54.472c-2.098-4.761.483-10.279 5.482-11.719l27.332-7.877c4.999-1.441 10.121 1.857 10.878 7.004l8.665 58.894c.627 4.253-1.988 8.315-6.119 9.505z" fill="#fee265"/><path d="m201.138 26.308 8.658 58.89c.627 4.254-1.984 8.314-6.12 9.506l-11.986 3.454c-.38.109-.758.192-1.138.239 3.5-1.536 5.599-5.235 5.03-9.103l-8.666-58.887c-.751-5.148-5.876-8.445-10.878-7.003l14.223-4.099c4.993-1.44 10.118 1.857 10.877 7.003z" fill="#fdd330"/><path d="m337.518 345.898c-7.222-.825-14.399-2.217-21.401-4.13-.299-68.204-44.014-126.339-104.879-148.148 4.819-67.864 58.371-124.206 126.28-131.961 4.115-.47 7.07-4.188 6.601-8.303-.47-4.115-4.182-7.069-8.303-6.601-37.22 4.251-71.849 21.746-97.508 49.261-23.9 25.629-38.546 58.436-41.755 93.139-12.325-3.095-25.217-4.748-38.489-4.748-35.998 0-69.912 11.794-98.076 34.107-3.247 2.572-3.793 7.29-1.222 10.536s7.29 3.793 10.536 1.222c25.487-20.192 56.181-30.865 88.762-30.865 78.885 0 143.063 64.178 143.063 143.062 0 78.885-64.178 143.063-143.063 143.063-78.886 0-143.064-64.177-143.064-143.063 0-32.88 10.854-63.798 31.387-89.41 2.591-3.232 2.072-7.952-1.16-10.543-3.233-2.592-7.952-2.072-10.543 1.16-22.366 27.899-34.684 62.984-34.684 98.793 0 87.156 70.907 158.063 158.063 158.063 82.224 0 149.974-63.113 157.38-143.437 6.695 1.674 13.516 2.922 20.373 3.706.289.033.576.049.86.049 3.761 0 7.005-2.823 7.442-6.649.47-4.116-2.485-7.833-6.6-8.303z"/><path d="m471.382 98.001c-25.993-28.839-61.469-47.061-99.891-51.31-4.114-.453-7.824 2.513-8.279 6.63s2.513 7.823 6.63 8.279c72.49 8.017 127.155 69.14 127.155 142.178s-54.665 134.161-127.155 142.178c-4.117.455-7.085 4.162-6.63 8.279.424 3.837 3.672 6.676 7.445 6.676.275 0 .554-.015.833-.046 38.422-4.249 73.898-22.471 99.891-51.31 26.191-29.058 40.615-66.624 40.615-105.777s-14.423-76.719-40.614-105.777z"/><path d="m287.891 188.153v1.148c0 4.142 3.358 7.5 7.5 7.5s7.5-3.358 7.5-7.5v-1.148c0-4.142-3.358-7.5-7.5-7.5s-7.5 3.358-7.5 7.5z"/><path d="m416.985 189.301v-1.148c0-4.142-3.358-7.5-7.5-7.5s-7.5 3.358-7.5 7.5v1.148c0 4.142 3.358 7.5 7.5 7.5s7.5-3.358 7.5-7.5z"/><path d="m379.698 222.096c0-4.142-3.358-7.5-7.5-7.5s-7.5 3.358-7.5 7.5c0 10.887-8.857 19.745-19.744 19.745s-19.745-8.857-19.745-19.745c0-4.142-3.358-7.5-7.5-7.5s-7.5 3.358-7.5 7.5c0 19.158 15.586 34.745 34.745 34.745s34.744-15.587 34.744-34.745z"/><path d="m151.925 298.055v-1.148c0-4.142-3.358-7.5-7.5-7.5s-7.5 3.358-7.5 7.5v1.148c0 4.142 3.358 7.5 7.5 7.5s7.5-3.358 7.5-7.5z"/><path d="m257.038 298.055v-1.148c0-4.142-3.358-7.5-7.5-7.5s-7.5 3.358-7.5 7.5v1.148c0 4.142 3.358 7.5 7.5 7.5s7.5-3.358 7.5-7.5z"/><path d="m170.067 317.832c-3.647 0-7.105 1.585-9.487 4.35-2.371 2.751-3.423 6.383-2.887 9.966 3.321 22.213 22.785 38.965 45.276 38.965s41.956-16.751 45.276-38.965c.536-3.583-.517-7.215-2.887-9.966-2.382-2.765-5.84-4.35-9.487-4.35zm32.902 38.281c-14.126 0-26.476-9.822-29.861-23.281h59.722c-3.385 13.46-15.735 23.281-29.861 23.281z"/><path d="m124.302 117.425c3.125 3.261 7.368 4.939 11.636 4.939 3.307 0 6.628-1.008 9.456-3.068l10.085-7.348c6.478-4.72 8.491-13.598 4.683-20.651l-28.286-52.377c-2.207-4.087-6.07-7.02-10.6-8.047-4.531-1.026-9.28-.046-13.033 2.688l-22.99 16.75c-3.753 2.735-6.142 6.957-6.552 11.583-.411 4.626 1.197 9.203 4.411 12.556zm-30.216-54.99 22.99-16.75c.193-.141.403-.212.627-.212.083 0 .169.01.256.03.321.073.563.256.719.545l28.286 52.378c.258.479.122 1.08-.317 1.4l-10.085 7.348c-.441.32-1.054.264-1.43-.127l-41.19-42.975c-.228-.237-.328-.524-.299-.852.028-.327.178-.591.443-.785z"/><path d="m49.076 146.674 53.404 26.296c2.258 1.112 4.674 1.644 7.065 1.644 5.223 0 10.326-2.537 13.395-7.099l6.963-10.354c4.474-6.651 3.329-15.682-2.662-21.007l-44.493-39.546c-3.471-3.085-8.108-4.521-12.712-3.937-4.608.584-8.737 3.129-11.33 6.983l-15.874 23.604c-2.592 3.854-3.392 8.639-2.195 13.126 1.196 4.489 4.273 8.239 8.439 10.29zm6.203-15.044 15.874-23.604c.183-.273.442-.432.768-.474.051-.006.102-.01.151-.01.265 0 .503.093.71.277l44.494 39.545c.406.361.484.973.181 1.424l-6.963 10.354c-.303.451-.9.609-1.387.37l-53.405-26.296c-.294-.145-.487-.379-.571-.697-.086-.317-.035-.616.148-.889z"/><path d="m174.585 96.396c2.617 5.938 8.52 9.597 14.76 9.597 1.467 0 2.954-.202 4.42-.625l11.989-3.456c7.703-2.219 12.631-9.874 11.463-17.804l-8.665-58.894c-.676-4.595-3.303-8.672-7.208-11.187-3.905-2.514-8.705-3.22-13.167-1.933l-27.333 7.877c-4.462 1.287-8.15 4.437-10.118 8.644s-2.022 9.057-.149 13.307zm-10.272-61.424c.14-.298.37-.495.686-.586l27.332-7.877c.106-.031.211-.046.314-.046.202 0 .396.059.579.177.276.178.441.433.489.758l8.665 58.894c.079.538-.255 1.057-.777 1.207l-11.989 3.456c-.522.148-1.081-.111-1.301-.608l-24.007-54.472c-.133-.302-.13-.605.009-.903z"/></svg>