<?xml version="1.0" encoding="iso-8859-1"?>
<!-- Generator: Adobe Illustrator 19.0.0, SVG Export Plug-In . SVG Version: 6.00 Build 0)  -->
<svg version="1.1" id="Layer_1" xmlns="http://www.w3.org/2000/svg" xmlns:xlink="http://www.w3.org/1999/xlink" x="0px" y="0px"
	 viewBox="0 0 480 480" style="enable-background:new 0 0 480 480;" xml:space="preserve">
<path style="fill:#FFFFFF;" d="M361.44,8h-240c-8.84,0-16,7.16-16,16v200h272V24C377.44,15.16,370.28,8,361.44,8z"/>
<g>
	<path style="fill:#F5B945;" d="M393.44,72h-16V40h16c8.84,0,16,7.16,16,16l0,0C409.44,64.84,402.28,72,393.44,72z"/>
	<path style="fill:#F5B945;" d="M393.44,136h-16v-32h16c8.84,0,16,7.16,16,16l0,0C409.44,128.84,402.28,136,393.44,136z"/>
</g>
<g>
	<path style="fill:#4D4D4D;" d="M393.44,96h-8V80h8c13.232,0,24-10.768,24-24s-10.768-24-24-24h-8v-8c0-13.232-10.768-24-24-24h-240
		c-13.232,0-24,10.768-24,24v200c0,4.416,3.576,8,8,8h272c4.424,0,8-3.584,8-8v-80h8c13.232,0,24-10.768,24-24S406.672,96,393.44,96
		z M393.44,48c4.416,0,8,3.592,8,8s-3.584,8-8,8h-8V48H393.44z M369.44,216h-256V24c0-4.408,3.584-8,8-8h240c4.416,0,8,3.592,8,8v16
		v32v32v32V216z M393.44,128h-8v-16h8c4.416,0,8,3.592,8,8S397.856,128,393.44,128z"/>
	<path style="fill:#4D4D4D;" d="M337.44,64h-184c-4.424,0-8,3.584-8,8s3.576,8,8,8h184c4.424,0,8-3.584,8-8S341.864,64,337.44,64z"
		/>
	<path style="fill:#4D4D4D;" d="M289.44,128h-136c-4.424,0-8,3.584-8,8s3.576,8,8,8h136c4.424,0,8-3.584,8-8S293.864,128,289.44,128
		z"/>
</g>
<path style="fill:#6FA0E3;" d="M393.44,224h-208v-40c0-8.84-7.16-16-16-16h-144c-8.84,0-16,7.16-16,16v40v232c0,8.84,7.16,16,16,16
	h384V240C409.44,231.16,402.28,224,393.44,224z"/>
<path style="fill:#5378AA;" d="M427.888,472H409.44V280h45.112c9.888,0,17.408,8.88,15.784,18.632l-26.664,160
	C442.384,466.344,435.704,472,427.888,472z"/>
<path style="fill:#4D4D4D;" d="M472.872,280.488c-4.576-5.392-11.256-8.488-18.32-8.488H417.44v-32c0-13.232-10.768-24-24-24h-200
	v-32c0-13.232-10.768-24-24-24h-144c-13.232,0-24,10.768-24,24v272c0,13.232,10.768,24,24,24h384h18.448
	c11.792,0,21.744-8.44,23.672-20.056l26.672-160C479.392,292.976,477.44,285.88,472.872,280.488z M17.44,456V232h80
	c4.424,0,8-3.584,8-8s-3.576-8-8-8h-80v-32c0-4.408,3.584-8,8-8h144c4.416,0,8,3.592,8,8v40c0,4.416,3.576,8,8,8h208
	c4.416,0,8,3.592,8,8v40v184h-376C21.024,464,17.44,460.408,17.44,456z M435.776,457.32c-0.64,3.872-3.96,6.68-7.888,6.68H417.44
	V288h37.112c2.392,0,4.56,1,6.112,2.832c1.544,1.824,2.176,4.128,1.792,6.48L435.776,457.32z"/>
<g>
</g>
<g>
</g>
<g>
</g>
<g>
</g>
<g>
</g>
<g>
</g>
<g>
</g>
<g>
</g>
<g>
</g>
<g>
</g>
<g>
</g>
<g>
</g>
<g>
</g>
<g>
</g>
<g>
</g>
</svg>
