<svg enable-background="new 0 0 64 64" height="512" viewBox="0 0 64 64" width="512" xmlns="http://www.w3.org/2000/svg"><path d="m43.5 37.5s5 2 9 5 4 7 4 12 0 8 0 8h-43s0-4 0-8 0-10 4-12 7-3 7-3z" fill="#aad2ff"/><path d="m13.5 62.5h43s0-.708 0-2h-43z" fill="#96bef0"/><path d="m52.5 42.5c-4-3-9-5-9-5l-19 2s-3 1-7 3-4 8-4 12v2c0-4 0-10 4-12s7-3 7-3l19-2s5 2 9 5 4 7 4 12c0-.626 0-1.29 0-2 0-5 0-9-4-12z" fill="#bee6ff"/><g fill="#96bef0"><path d="m46.5 63c-.276 0-.5-.224-.5-.5v-12c0-.276.224-.5.5-.5s.5.224.5.5v12c0 .276-.224.5-.5.5z"/><path d="m17.5 63c-.276 0-.5-.224-.5-.5v-12c0-.276.224-.5.5-.5s.5.224.5.5v12c0 .276-.224.5-.5.5z"/><path d="m30.5 63c-.276 0-.5-.224-.5-.5v-12c0-.276.224-.5.5-.5s.5.224.5.5v12c0 .276-.224.5-.5.5z"/></g><path d="m29.445 34.5v9l1.555 5.5 3-5 5.5-.5v-16.76z" fill="#ffb4be"/><path d="m29.444 44c-.276 0-.5-.224-.5-.5v-9c0-.276.224-.5.5-.5s.5.224.5.5v9c0 .276-.223.5-.5.5z" fill="#785ae6"/><path d="m29.445 36.412s-3.945 1.088-4.945 4.088c-.544 1.633-1.089 3.86-1.472 5.549-.054.236.267.353.385.142.495-.887 1.19-1.691 2.087-1.691 2 0 5 6 5 6z" fill="#aad2ff"/><path d="m29.585 38.281-.14-1.869s-3.945 1.088-4.945 4.088c-.084.253-.169.525-.253.802 1.676-1.372 4.051-2.477 5.338-3.021z" fill="#bee6ff"/><path d="m30.5 51c-.186 0-.361-.104-.447-.276-1.189-2.377-3.388-5.724-4.553-5.724-.703 0-1.285.78-1.65 1.435-.174.312-.543.446-.875.319-.33-.126-.512-.469-.435-.814.146-.646.258-1.362.375-2.12.183-1.18.373-2.401.717-3.434 1.073-3.22 5.499-4.409 5.686-4.458.145-.037.297-.009.417.077.121.086.197.222.208.369l1.056 14.088c.018.238-.135.456-.366.52-.044.012-.089.018-.133.018zm-5-7c1.482 0 3.205 2.378 4.33 4.249l-.837-11.167c-1.16.413-3.719 1.54-4.413 3.621-.317.953-.5 2.131-.677 3.271-.046.295-.09.583-.137.866.529-.559 1.109-.84 1.734-.84z" fill="#96bef0"/><path d="m30.5 51c-.259 0-.479-.2-.498-.462l-1.008-13.457c-.972.344-2.923 1.188-3.885 2.671-.15.231-.459.298-.691.147-.232-.15-.298-.459-.147-.691 1.518-2.341 4.906-3.243 5.049-3.28s.296-.008.417.077c.121.086.196.222.208.369l1.056 14.088c.021.275-.186.516-.461.536-.015.002-.028.002-.04.002z" fill="#785ae6"/><path d="m39.5 44c-.276 0-.5-.224-.5-.5v-16.76c0-.276.224-.5.5-.5s.5.224.5.5v16.76c0 .276-.224.5-.5.5z" fill="#785ae6"/><path d="m30.5 50.5s3-6 5-9 5-7 5-7l3 3s-.642 5.78-1.412 9.62c-.168.84-1.266 1.098-1.772.407-1.827-2.495-5.571-5.516-9.816 2.973z" fill="#aad2ff"/><path d="m43.261 39.281c.149-1.068.239-1.781.239-1.781l-3-3s-.398.531-.997 1.346z" fill="#bee6ff"/><path d="m30.5 51c-.075 0-.151-.017-.223-.053-.176-.087-.277-.264-.277-.447 0-.067.013-.135.042-.2.003-.008.007-.016.011-.023 0 0 .001-.002.002-.004.002-.004.004-.008.006-.013.212-.424 3.062-6.096 5.022-9.037 1.985-2.977 4.986-6.982 5.016-7.022.087-.116.22-.188.364-.199.151-.011.287.042.389.145l3 3c.107.107.16.258.144.409-.006.058-.653 5.846-1.419 9.663-.118.591-.56 1.04-1.152 1.17-.583.129-1.163-.088-1.513-.566-.863-1.178-2.231-2.554-3.833-2.418-1.694.143-3.401 1.894-5.076 5.205-.035.07-.055.109-.058.115-.086.174-.262.275-.445.275zm5.801-6.605c1.533 0 3.054.975 4.418 2.837.165.225.399.2.491.18.076-.017.328-.095.387-.39.669-3.336 1.249-8.211 1.378-9.338l-2.421-2.42c-.845 1.139-3.066 4.155-4.639 6.515-.63.945-1.366 2.202-2.075 3.474.707-.5 1.426-.782 2.156-.844.102-.01.204-.014.305-.014z" fill="#96bef0"/><path d="m30.5 51c-.075 0-.151-.017-.223-.053-.247-.124-.347-.424-.224-.671.123-.246 3.037-6.062 5.031-9.054 1.985-2.977 4.986-6.982 5.016-7.022.087-.116.22-.188.364-.199.151-.011.287.042.389.145l3 3c.195.195.195.512 0 .707s-.512.195-.707 0l-2.591-2.591c-.845 1.139-3.066 4.155-4.639 6.515-1.959 2.939-4.939 8.887-4.969 8.946-.088.176-.264.277-.447.277z" fill="#785ae6"/><circle cx="33" cy="52" fill="#8d7bd4" r="1"/><circle cx="33" cy="59" fill="#8d7bd4" r="1"/><path d="m56.5 63h-43c-.276 0-.5-.224-.5-.5v-8c0-4.105 0-10.309 4.276-12.447 3.986-1.993 7.035-3.017 7.065-3.027.264-.088.545.054.632.316s-.054.545-.316.632c-.03.01-3.017 1.014-6.935 2.973-3.722 1.862-3.722 7.694-3.722 11.553v7.5h42v-7.5c0-4.889 0-8.75-3.8-11.6-3.898-2.924-8.836-4.916-8.886-4.936-.256-.103-.381-.394-.279-.65.103-.257.396-.381.65-.279.207.083 5.107 2.059 9.114 5.064 4.201 3.151 4.201 7.438 4.201 12.401v8c0 .276-.224.5-.5.5z" fill="#785ae6"/><path d="m40.126 18.5c-.457 2.069-1.332 5-2.626 5-2 0-2-6-2-6s-8 0-10 0c-.665 0-2.169.196-3.565.131-2.995-.138-6.435-2.126-6.435-6.131 0-6 2-8 3-7s3 3 4 3c0 0-1.581-2.419 0-4 1-1 3 4 7 4s15-1 15 6-2 12-2 15-1.387 2.911-4.193 2.911z" fill="#968cd2"/><path d="m42.431 27.5c-.297 1.898-1.572 1.913-3.842 1.911l-.282 2c2.807 0 4.193.089 4.193-2.911 0-.308.033-.65.07-1z" fill="#8d7bd4"/><path d="m35.5 16.5c0-.552-.448-1-1-1h-9c-.665 0-2.169.196-3.565.131-2.816-.13-6.024-1.896-6.398-5.436-.022.415-.037.844-.037 1.305 0 4.005 3.44 5.992 6.435 6.131 1.396.065 2.9-.131 3.565-.131h10z" fill="#8d7bd4"/><path d="m22.5 5.5c1-1 3 4 7 4 3.859 0 14.228-.928 14.956 5.29.015-.43.044-.844.044-1.29 0-7-11-6-15-6s-6-5-7-4c-.866.866-.782 1.981-.53 2.815.11-.284.276-.561.53-.815z" fill="#a99be0"/><path d="m18.5 6.5c1 1 3 3 4 3 0 0-.684-1.055-.698-2.226-1.057-.539-2.499-1.971-3.302-2.774-1-1-3 1-3 7 0 .196.031.368.047.552.294-4.863 2.039-6.466 2.953-5.552z" fill="#a99be0"/><path d="m21.5 17.5v11c0 3.314 2.686 6 6 6h5c3.866 0 7-3.134 7-7v-1h2c1.657 0 3-1.343 3-3v-2c0-1.657-1.343-3-3-3h-2l-3-1z" fill="#ffc8d2"/><path d="m23.5 25c-.276 0-.5-.224-.5-.5v-3c0-.276.224-.5.5-.5s.5.224.5.5v3c0 .276-.224.5-.5.5z" fill="#785ae6"/><path d="m33.5 21c-.128 0-.256-.049-.354-.146-2.588-2.586-4.228-1.062-4.296-.997-.198.191-.514.188-.706-.008s-.192-.508.001-.702c.023-.023 2.391-2.316 5.707 1 .195.195.195.512 0 .707-.096.097-.224.146-.352.146z" fill="#785ae6"/><path d="m24.5 20c-.127 0-.255-.048-.353-.145-.116-.114-1.127-1.032-2.342-.082-.22.17-.533.13-.702-.086-.17-.218-.131-.532.086-.702 1.555-1.216 3.077-.426 3.664.162.195.195.195.512 0 .707-.097.097-.225.146-.353.146z" fill="#785ae6"/><path d="m40.126 18.5c-.457 2.069-1.332 5-2.626 5-2 0-2-7-2-7z" fill="#968cd2"/><g fill="#785ae6"><path d="m41.5 27h-2c-.276 0-.5-.224-.5-.5s.224-.5.5-.5h2c1.378 0 2.5-1.122 2.5-2.5v-2c0-1.378-1.122-2.5-2.5-2.5h-1c-.276 0-.5-.224-.5-.5s.224-.5.5-.5h1c1.93 0 3.5 1.57 3.5 3.5v2c0 1.93-1.57 3.5-3.5 3.5z"/><path d="m32.5 35h-5c-3.584 0-6.5-2.916-6.5-6.5v-11c0-.276.224-.5.5-.5s.5.224.5.5v11c0 3.033 2.467 5.5 5.5 5.5h5c.276 0 .5.224.5.5s-.224.5-.5.5z"/><path d="m30.5 31h-5c-.276 0-.5-.224-.5-.5s.224-.5.5-.5h5c.403 0 .494-.275.5-.506.007-.273.19-.491.506-.491.274.004.494.224.494.497 0 .603-.399 1.5-1.5 1.5z"/><path d="m25.5 28c-1.153 0-2.5-.393-2.5-1.5 0-1.064 1.71-4.538 2.053-5.224.124-.247.423-.347.671-.224.247.124.347.424.224.671-.809 1.618-1.948 4.169-1.948 4.777 0 .301.903.5 1.5.5.276 0 .5.224.5.5s-.224.5-.5.5z"/><path d="m30.5 25c-.276 0-.5-.224-.5-.5v-3c0-.276.224-.5.5-.5s.5.224.5.5v3c0 .276-.224.5-.5.5z"/><path d="m39.5 31.905c-.271 0-.495-.217-.5-.49-.005-.276.214-.504.49-.51 1.86-.037 2.51-.242 2.51-2.405 0-.578.069-1.255.216-2.13.046-.272.298-.455.576-.41.272.046.456.304.41.576-.138.819-.202 1.443-.202 1.964 0 3.084-1.581 3.367-3.49 3.405-.004 0-.007 0-.01 0z"/><path d="m44.004 20.192c-.025 0-.051-.002-.077-.006-.273-.042-.46-.297-.418-.57.33-2.145.491-4.146.491-6.116 0-1.324-.415-2.375-1.269-3.21-2.559-2.506-8.373-2.382-11.846-2.31-.519.01-.987.02-1.385.02-2.566 0-4.36-1.869-5.547-3.105-.405-.422-.959-1-1.161-1.027-1.21 1.257.071 3.274.126 3.36.1.154.107.35.02.511-.086.16-.255.261-.438.261-1.114 0-2.831-1.624-4.354-3.146-.105-.105-.2-.125-.334-.068-.728.301-1.812 2.338-1.812 6.714 0 2.77 1.88 4.519 5.588 5.199.271.05.451.31.401.582-.049.272-.305.453-.582.401-4.191-.768-6.407-2.906-6.407-6.182 0-4.896 1.309-7.174 2.43-7.639.511-.213 1.031-.108 1.424.285.496.496 1.704 1.703 2.653 2.378-.307-.964-.429-2.309.64-3.378.185-.185.412-.292.661-.279.591.006 1.126.563 1.867 1.334 1.133 1.182 2.685 2.799 4.825 2.799.393 0 .853-.01 1.364-.021 3.629-.078 9.707-.205 12.566 2.596 1.042 1.02 1.57 2.34 1.57 3.925 0 2.022-.165 4.072-.502 6.269-.039.247-.251.423-.494.423z"/></g></svg>