<svg height="453pt" viewBox="0 -1 453.11209 453" width="453pt" xmlns="http://www.w3.org/2000/svg"><path d="m64.820312 22.460938s6.816407 25.320312 26.445313 26.492187c0 0-26.199219 9.050781-26.640625 28.40625 0 0-5.160156-27.144531-25.851562-28.121094 0 .003907 24.101562-3.648437 26.046874-26.777343zm0 0" fill="#d5de58"/><path d="m64.621094 80.359375c-1.425782 0-2.671875-1.011719-2.945313-2.4375-.046875-.246094-4.988281-24.832031-23.042969-25.6875-1.539062-.070313-2.773437-1.296875-2.855468-2.839844-.078125-1.539062 1.023437-2.886719 2.546875-3.121093.882812-.136719 21.789062-3.632813 23.507812-24.066407.121094-1.449219 1.269531-2.601562 2.71875-2.734375 1.441407-.125 2.785157.796875 3.164063 2.207032.066406.230468 6.519531 23.25 23.730468 24.28125 1.425782.085937 2.59375 1.167968 2.789063 2.585937.199219 1.414063-.636719 2.773437-1.984375 3.242187-.242188.085938-24.238281 8.621094-24.628906 25.640626-.035156 1.53125-1.21875 2.789062-2.75 2.917968-.082032.007813-.167969.011719-.25.011719zm-15.480469-31.460937c7.753906 3.941406 12.460937 11.492187 15.171875 17.753906 4.054688-8.042969 11.882812-13.574219 17.898438-16.855469-8.269532-3.683594-13.566407-11.300781-16.667969-17.445313-3.585938 8.722657-10.542969 13.738282-16.402344 16.546876zm0 0" fill="#3a312a"/><path d="m21.425781 56.425781s4.820313 17.90625 18.703125 18.734375c0 0-18.53125 6.402344-18.84375 20.09375 0 0-3.648437-19.203125-18.285156-19.890625 0 .003907 17.046875-2.582031 18.425781-18.9375zm0 0" fill="#d5de58"/><path d="m21.28125 98.253906c-1.425781 0-2.675781-1.015625-2.945312-2.441406-.03125-.164062-3.40625-16.882812-15.476563-17.453125-1.542969-.070313-2.7734375-1.300781-2.85546875-2.839844-.07812505-1.542969 1.02343775-2.890625 2.54687475-3.125.589844-.09375 14.726563-2.484375 15.882813-16.222656.121094-1.453125 1.269531-2.609375 2.71875-2.738281 1.464844-.136719 2.785156.796875 3.164062 2.203125.042969.15625 4.457032 15.839843 15.988282 16.53125 1.429687.085937 2.597656 1.167969 2.792968 2.585937.195313 1.417969-.640625 2.777344-1.992187 3.242188-.160157.058594-16.5625 5.90625-16.824219 17.324218-.039062 1.535157-1.222656 2.792969-2.753906 2.921876-.082032.007812-.164063.011718-.246094.011718zm-9.039062-23.054687c4.214843 2.664062 7.050781 6.785156 8.894531 10.558593 2.753906-4.464843 7.03125-7.742187 10.730469-9.945312-4.574219-2.539062-7.765626-6.703125-9.882813-10.449219-2.347656 4.578125-6.027344 7.753907-9.742187 9.835938zm0 0" fill="#3a312a"/><path d="m21.425781 3.109375s4.820313 17.90625 18.703125 18.738281c0 0-18.53125 6.402344-18.84375 20.089844 0 0-3.648437-19.199219-18.285156-19.886719 0 0 17.046875-2.582031 18.425781-18.941406zm0 0" fill="#d5de58"/><path d="m21.28125 44.941406c-1.425781 0-2.675781-1.015625-2.945312-2.441406-.03125-.164062-3.40625-16.882812-15.476563-17.453125-1.542969-.074219-2.7734375-1.300781-2.85546875-2.84375-.07812505-1.535156 1.02343775-2.886719 2.54687475-3.117187.589844-.097657 14.726563-2.484376 15.882813-16.226563.121094-1.453125 1.269531-2.605469 2.71875-2.738281 1.464844-.12500025 2.785156.800781 3.164062 2.203125.042969.160156 4.457032 15.84375 15.988282 16.53125 1.429687.085937 2.597656 1.167969 2.792968 2.585937.195313 1.417969-.636718 2.777344-1.992187 3.246094-.160157.054688-16.5625 5.90625-16.824219 17.324219-.039062 1.535156-1.222656 2.792969-2.753906 2.921875-.082032.003906-.164063.007812-.246094.007812zm-9.039062-23.058594c4.214843 2.664063 7.050781 6.789063 8.894531 10.558594 2.753906-4.464844 7.03125-7.742187 10.730469-9.945312-4.574219-2.535156-7.765626-6.699219-9.882813-10.449219-2.347656 4.578125-6.027344 7.753906-9.742187 9.835937zm0 0" fill="#3a312a"/><path d="m342.425781 119.574219h-304.113281c-18.878906 0-34.199219 15.300781-34.199219 34.203125v260.578125c0 18.902343 15.320313 34.21875 34.199219 34.21875h377.578125c18.902344 0 34.222656-15.316407 34.222656-34.21875v-260.578125c0-18.902344-15.320312-34.203125-34.222656-34.203125h-47.871094m-98.867187 42.863281h-85.199219c-3.222656 0-6.140625-1.300781-8.261719-3.421875-2.097656-2.121094-3.417968-5.039063-3.417968-8.257813 0-6.460937 5.238281-11.683593 11.679687-11.683593h85.199219c3.21875 0 6.140625 1.300781 8.257812 3.421875 2.101563 2.121094 3.421875 5.039062 3.421875 8.261718 0 6.4375-5.238281 11.679688-11.679687 11.679688zm0 0" fill="#ed6e7a"/><path d="m415.894531 451.574219h-377.582031c-20.511719 0-37.199219-16.695313-37.199219-37.21875v-260.578125c0-20.515625 16.6875-37.203125 37.199219-37.203125h304.113281c1.65625 0 3 1.34375 3 3s-1.34375 3-3 3h-304.113281c-17.203125 0-31.199219 13.996093-31.199219 31.203125v260.578125c0 17.214843 13.996094 31.21875 31.199219 31.21875h377.578125c17.214844 0 31.222656-14.003907 31.222656-31.21875v-260.578125c0-17.207032-14.003906-31.203125-31.222656-31.203125h-47.871094c-1.660156 0-3-1.34375-3-3s1.339844-3 3-3h47.871094c20.527344 0 37.222656 16.6875 37.222656 37.203125v260.578125c0 20.523437-16.695312 37.21875-37.21875 37.21875zm-146.742187-286.136719h-85.199219c-3.921875 0-7.609375-1.527344-10.382813-4.296875-2.773437-2.804687-4.296874-6.488281-4.296874-10.382813 0-8.09375 6.585937-14.679687 14.679687-14.679687h85.199219c3.921875 0 7.609375 1.527344 10.382812 4.296875 2.777344 2.800781 4.300782 6.484375 4.300782 10.382812-.003907 8.09375-6.585938 14.679688-14.683594 14.679688zm-85.199219-23.363281c-4.785156 0-8.679687 3.894531-8.679687 8.683593 0 2.300782.90625 4.484376 2.550781 6.148438 1.628906 1.628906 3.808593 2.53125 6.128906 2.53125h85.199219c4.785156 0 8.679687-3.894531 8.679687-8.679688 0-2.304687-.90625-4.488281-2.550781-6.148437-1.628906-1.628906-3.808594-2.535156-6.128906-2.535156zm0 0" fill="#3a312a"/><path d="m135.175781 418.386719h62.597657v-30.1875c0-18.402344-14.914063-33.3125-33.316407-33.3125h-22.007812v-14.304688c-6.085938 4.21875-12.386719 6.710938-18.5 6.710938-5.863281 0-12.050781-2.515625-18.113281-6.785157h-.375v14.378907h-22.019532c-18.402344 0-33.316406 14.914062-33.316406 33.3125v30.1875zm0 0" fill="#f8e4c8"/><path d="m197.773438 421.386719h-62.597657c-1.65625 0-3-1.34375-3-3s1.34375-3 3-3h59.597657v-27.1875c0-16.714844-13.597657-30.3125-30.316407-30.3125h-22.007812c-1.660157 0-3-1.34375-3-3v-8.925781c-5.300781 2.875-10.496094 4.332031-15.5 4.332031-4.933594 0-10.125-1.535157-15.484375-4.566407v9.160157c0 1.65625-1.34375 3-3 3h-22.023438c-16.714844 0-30.316406 13.597656-30.316406 30.3125v27.1875h56.894531c1.660157 0 3 1.34375 3 3s-1.339843 3-3 3h-59.894531c-1.65625 0-3-1.34375-3-3v-30.1875c0-20.023438 16.292969-36.3125 36.316406-36.3125h19.023438v-11.378907c0-1.65625 1.339844-3 3-3h.375c.617187 0 1.21875.191407 1.726562.546876 5.875 4.140624 11.386719 6.238281 16.386719 6.238281 5.230469 0 10.878906-2.078125 16.789063-6.175781.914062-.636719 2.113281-.710938 3.101562-.195313.988281.519531 1.605469 1.542969 1.605469 2.65625v11.304687h19.011719c20.023437 0 36.3125 16.292969 36.3125 36.316407v30.1875c0 1.65625-1.34375 3-3 3zm0 0" fill="#3a312a"/><path d="m135.175781 418.390625h62.597657v-30.199219c0-18.398437-14.914063-33.3125-33.316407-33.3125h-5.265625l.136719.097656-22.890625 30.363282-11.816406-8.902344-11.8125 8.902344-22.894532-30.363282.136719-.101562h-6.609375c-18.402344 0-33.316406 14.914062-33.316406 33.316406v30.199219zm0 0" fill="#89c4db"/><path d="m197.773438 421.390625h-62.597657c-1.65625 0-3-1.34375-3-3s1.34375-3 3-3h59.597657v-27.199219c0-16.714844-13.597657-30.316406-30.316407-30.316406h-3.558593l-22.066407 29.269531c-.996093 1.324219-2.878906 1.585938-4.199219.589844l-10.011718-7.539063-10.007813 7.539063c-1.320312.996094-3.203125.734375-4.203125-.589844l-22.066406-29.269531h-4.902344c-16.714844 0-30.316406 13.601562-30.316406 30.316406v27.199219h56.894531c1.660157 0 3 1.34375 3 3s-1.339843 3-3 3h-59.890625c-1.660156 0-3-1.34375-3-3v-30.199219c0-20.023437 16.289063-36.316406 36.3125-36.316406h6.609375c1.300781 0 2.453125.835938 2.851563 2.070312l.007812.019532 20.488282 27.171875 9.417968-7.09375c1.070313-.804688 2.542969-.804688 3.613282 0l9.417968 7.09375 20.660156-27.398438c.457032-1.097656 1.480469-1.863281 2.6875-1.863281h5.265626c20.023437 0 36.3125 16.292969 36.3125 36.316406v30.199219c0 1.65625-1.34375 3-3 3zm0 0" fill="#3a312a"/><path d="m79.855469 272.304688c0 7.238281-5.871094 13.105468-13.109375 13.105468-7.238282 0-13.109375-5.867187-13.109375-13.105468 0-7.242188 5.871093-13.109376 13.109375-13.109376 7.238281 0 13.109375 5.867188 13.109375 13.109376zm0 0" fill="#f8e4c8" fill-rule="evenodd"/><path d="m66.746094 288.410156c-8.882813 0-16.109375-7.222656-16.109375-16.105468 0-8.882813 7.226562-16.109376 16.109375-16.109376 8.882812 0 16.109375 7.226563 16.109375 16.109376 0 8.882812-7.226563 16.105468-16.109375 16.105468zm0-26.214844c-5.574219 0-10.109375 4.535157-10.109375 10.109376 0 5.574218 4.535156 10.105468 10.109375 10.105468 5.574218 0 10.109375-4.53125 10.109375-10.105468 0-5.574219-4.535157-10.109376-10.109375-10.109376zm0 0" fill="#3a312a"/><path d="m194.265625 272.304688c0 7.238281-5.867187 13.105468-13.109375 13.105468-7.238281 0-13.105469-5.867187-13.105469-13.105468 0-7.242188 5.867188-13.109376 13.105469-13.109376s13.109375 5.867188 13.109375 13.109376zm0 0" fill="#f8e4c8" fill-rule="evenodd"/><path d="m181.15625 288.410156c-8.878906 0-16.105469-7.222656-16.105469-16.105468 0-8.882813 7.226563-16.109376 16.105469-16.109376 8.882812 0 16.109375 7.226563 16.109375 16.109376 0 8.882812-7.226563 16.105468-16.109375 16.105468zm0-26.214844c-5.570312 0-10.105469 4.535157-10.105469 10.109376 0 5.574218 4.535157 10.105468 10.105469 10.105468 5.574219 0 10.109375-4.53125 10.109375-10.105468 0-5.574219-4.535156-10.109376-10.109375-10.109376zm0 0" fill="#3a312a"/><path d="m182.0625 265.941406c0 32.09375-30.910156 81.355469-58.109375 81.355469-25.964844 0-58.109375-49.261719-58.109375-81.355469s26.015625-58.109375 58.109375-58.109375c32.089844 0 58.109375 26.015625 58.109375 58.109375zm0 0" fill="#f8e4c8"/><path d="m123.953125 350.292969c-13.078125 0-28.113281-10.910157-41.261719-29.933594-12.242187-17.71875-19.847656-38.570313-19.847656-54.417969 0-33.699218 27.414062-61.113281 61.109375-61.113281s61.109375 27.414063 61.109375 61.113281c0 34.074219-32.191406 84.351563-61.109375 84.351563zm0-139.460938c-30.390625 0-55.109375 24.722657-55.109375 55.109375 0 29.773438 30.785156 78.355469 55.109375 78.355469 25.019531 0 55.109375-48.125 55.109375-78.355469 0-30.386718-24.722656-55.109375-55.109375-55.109375zm0 0" fill="#3a312a"/><path d="m109.109375 265.285156c0 3.132813-2.542969 5.671875-5.671875 5.671875-3.132812 0-5.671875-2.539062-5.671875-5.671875 0-3.132812 2.539063-5.671875 5.671875-5.671875 3.128906 0 5.671875 2.539063 5.671875 5.671875zm0 0" fill="#3a312a"/><path d="m150.140625 265.285156c0 3.132813-2.539063 5.671875-5.671875 5.671875s-5.671875-2.539062-5.671875-5.671875c0-3.132812 2.539063-5.671875 5.671875-5.671875s5.671875 2.539063 5.671875 5.671875zm0 0" fill="#3a312a"/><path d="m101.871094 282.148438c0 4.035156-4.375 7.304687-9.769532 7.304687-5.398437 0-9.769531-3.269531-9.769531-7.304687 0-4.035157 4.371094-7.304688 9.769531-7.304688 5.394532 0 9.769532 3.269531 9.769532 7.304688zm0 0" fill="#f59689"/><path d="m165.574219 282.148438c0 4.035156-4.375 7.304687-9.769531 7.304687-5.398438 0-9.769532-3.269531-9.769532-7.304687 0-4.035157 4.371094-7.304688 9.769532-7.304688 5.394531 0 9.769531 3.269531 9.769531 7.304688zm0 0" fill="#f59689"/><path d="m124.621094 195.007812c-33.21875 0-60.144532 25.746094-60.144532 57.503907 0 3.359375.609376 5.863281 1.738282 8.992187.53125 1.476563 9.144531-3.234375 9.878906-3.75 3.664062-2.582031 6.664062-6.082031 8.902344-9.953125.925781-1.605469 1.699218-3.246093 2.320312-4.878906 1.980469-5.226563 7.367188-19.761719 12.835938-18.621094 7.335937 1.527344 15.648437 2.394531 24.46875 2.394531 8.816406 0 17.132812-.867187 24.46875-2.394531 5.464844-1.140625 10.855468 13.394531 12.835937 18.621094.621094 1.636719 1.394531 3.273437 2.320313 4.882813 3.699218 6.398437 9.949218 12.492187 17.550781 13.601562.019531-.367188.484375-.492188.828125-.617188 2.488281-.90625 2.140625-6.28125 2.140625-8.277343.003906-31.757813-26.925781-57.503907-60.144531-57.503907zm0 0" fill="#87796f"/><path d="m66.671875 264.757812c-.398437 0-.761719-.046874-1.082031-.148437-1.035156-.328125-1.835938-1.085937-2.195313-2.082031-1.152343-3.1875-1.917969-6.109375-1.917969-10.015625 0-33.363281 28.328126-60.503907 63.148438-60.503907 34.816406 0 63.144531 27.140626 63.144531 60.503907l.007813.628906c.042968 3.039063.125 8.632813-3.8125 10.339844-.082032.085937-.167969.164062-.257813.242187-.652343.535156-1.496093.777344-2.335937.648438-7.527344-1.09375-14.898438-6.726563-19.71875-15.066406-.992188-1.726563-1.839844-3.515626-2.527344-5.320313l-.121094-.328125c-6.117187-16.136719-8.980468-16.441406-9.296875-16.421875-7.820312 1.632813-16.253906 2.460937-25.082031 2.460937-8.824219 0-17.261719-.828124-25.078125-2.457031-.007813-.003906-.011719-.003906-.023437-.003906-.402344 0-3.28125.605469-9.273438 16.421875l-.125.328125c-.6875 1.808594-1.535156 3.597656-2.527344 5.316406-2.570312 4.441407-5.953125 8.210938-9.777344 10.90625-.074218.054688-7.222656 4.550781-11.148437 4.550781zm115.648437-3.859374 1.097657 2.792968c.066406-.03125.140625-.066406.21875-.117187zm-57.699218-62.890626c-31.507813 0-57.144532 24.449219-57.144532 54.503907 0 2.207031.296876 3.960937.835938 5.792969 2.082031-.835938 5.269531-2.496094 6.089844-3.027344 3.082031-2.171875 5.863281-5.289063 7.996094-8.976563.828124-1.4375 1.539062-2.933593 2.113281-4.445312l.125-.328125c4.292969-11.324219 9.214843-21.589844 16.132812-20.164063 7.414063 1.542969 15.4375 2.328125 23.851563 2.328125 8.414062 0 16.441406-.785156 23.855468-2.328125 6.90625-1.421875 11.839844 8.839844 16.132813 20.167969l.121094.324219c.574219 1.507812 1.289062 3.007812 2.117187 4.449219 3.628906 6.28125 8.851563 10.640624 14.164063 11.898437.101562-.046875.207031-.09375.320312-.136719.328125-.640625.480469-2.269531.441407-4.839844l-.007813-.714843c.003906-30.054688-25.632813-54.503907-57.144531-54.503907zm0 0" fill="#3a312a"/><path d="m89.933594 354.964844 11.867187-8.941406 22.886719 30.367187-11.863281 8.945313zm0 0" fill="#87796f"/><path d="m112.808594 388.339844c-.136719 0-.277344-.011719-.417969-.03125-.789063-.109375-1.5-.527344-1.980469-1.164063l-22.886718-30.367187c-.996094-1.324219-.734376-3.207032.589843-4.203125l11.863281-8.941407c.636719-.480468 1.4375-.683593 2.222657-.574218.789062.113281 1.5.53125 1.980469 1.164062l22.882812 30.371094c1 1.320312.734375 3.203125-.589844 4.199219l-11.863281 8.941406c-.519531.394531-1.15625.605469-1.800781.605469zm-18.6875-32.777344 19.277344 25.574219 7.070312-5.328125-19.273438-25.578125zm0 0" fill="#3a312a"/><path d="m136.453125 385.332031-11.867187-8.941406 22.890624-30.367187 11.863282 8.941406zm0 0" fill="#87796f"/><path d="m136.4375 388.339844c-.628906 0-1.261719-.199219-1.804688-.605469l-11.863281-8.941406c-.636719-.480469-1.054687-1.191407-1.167969-1.976563-.109374-.789062.097657-1.589844.578126-2.222656l22.882812-30.367188c1-1.324218 2.878906-1.585937 4.203125-.59375l11.863281 8.941407c.636719.480469 1.054688 1.195312 1.164063 1.980469.109375.789062-.09375 1.585937-.574219 2.222656l-22.886719 30.367187c-.589843.785157-1.484375 1.195313-2.394531 1.195313zm-7.664062-12.53125 7.074218 5.328125 19.277344-25.574219-7.074219-5.332031zm0 0" fill="#3a312a"/><path d="m77.78125 421.390625c-1.65625 0-3-1.34375-3-3v-23.859375c0-1.65625 1.34375-3 3-3 1.660156 0 3 1.34375 3 3v23.859375c0 1.65625-1.339844 3-3 3zm0 0" fill="#3a312a"/><path d="m171.460938 421.390625c-1.65625 0-3-1.34375-3-3v-23.859375c0-1.65625 1.34375-3 3-3 1.660156 0 3 1.34375 3 3v23.859375c0 1.65625-1.34375 3-3 3zm0 0" fill="#3a312a"/><path d="m74.792969 206.289062c9.863281 12.421876 21.664062 25.664063 35.914062 29.714844 22.953125 6.527344 63.582031-1.617187 63.582031-34.652344 0-21.125-17.707031-46.660156-50.753906-27.21875-40.964844 24.097657-64.738281-22.226562-64.738281-1.097656 0 6.675782 2.6875 13.335938 6.222656 19.398438zm0 0" fill="#87796f"/><path d="m126.757812 241.066406c-6.109374 0-11.921874-.769531-16.871093-2.175781-14.796875-4.207031-26.742188-17.257813-37.441407-30.734375-.039062-.042969-.070312-.089844-.101562-.136719l-9.777344-13.859375c-.050781-.070312-.097656-.140625-.140625-.21875-4.460937-7.652344-6.628906-14.492187-6.628906-20.90625 0-2.917968.351563-6.472656 3.109375-8.03125 3.25-1.839844 6.839844.308594 12.273438 3.566406 10.351562 6.210938 27.679687 16.605469 50.835937 2.976563 17.96875-10.570313 30.488281-7.789063 37.820313-3.597656 12.054687 6.894531 17.453124 21.746093 17.457031 33.402343 0 11.839844-4.949219 21.832032-14.3125 28.90625-10.058594 7.597657-23.757813 10.808594-36.222657 10.808594zm-49.558593-36.574218c10.0625 12.664062 21.1875 24.890624 34.332031 28.628906 13.28125 3.773437 34.554688 2.375 47.832031-7.652344 7.914063-5.976562 11.925781-14.089844 11.925781-24.117188 0-9.925781-4.464843-22.492187-14.433593-28.195312-8.542969-4.878906-19.539063-3.648438-31.800781 3.5625-26.234376 15.429688-46.21875 3.4375-56.960938-3.003906-2.160156-1.292969-4.773438-2.863282-6.085938-3.269532-.101562.441407-.210937 1.234376-.210937 2.585938 0 5.292969 1.878906 11.109375 5.746094 17.777344zm0 0" fill="#3a312a"/><path d="m123.949219 316.074219c-8.753907 0-15.066407-3.9375-18.765625-11.703125-.710938-1.496094-.074219-3.285156 1.417968-4 1.5-.707032 3.289063-.074219 4 1.421875 2.691407 5.648437 6.933594 8.28125 13.347657 8.28125 7.507812 0 12.035156-4.808594 13.246093-8.042969.582032-1.554688 2.3125-2.34375 3.863282-1.757812 1.550781.582031 2.335937 2.308593 1.757812 3.863281-2.15625 5.746093-8.976562 11.9375-18.867187 11.9375zm0 0" fill="#3a312a"/><path d="m392.445312 253.390625h-138.71875c-6.425781 0-11.636718-5.210937-11.636718-11.636719v-30.71875c0-6.429687 5.210937-11.640625 11.636718-11.640625h138.71875c6.429688 0 11.640626 5.210938 11.640626 11.640625v30.71875c0 6.425782-5.210938 11.636719-11.640626 11.636719zm0 0" fill="#d5dc57"/><g fill="#3a312a"><path d="m392.445312 256.390625h-138.71875c-8.074218 0-14.640624-6.566406-14.640624-14.636719v-30.71875c0-8.074218 6.566406-14.640625 14.640624-14.640625h138.71875c8.074219 0 14.640626 6.566407 14.640626 14.640625v30.71875c0 8.070313-6.566407 14.636719-14.640626 14.636719zm-138.71875-54c-4.765624 0-8.640624 3.878906-8.640624 8.640625v30.71875c0 4.765625 3.875 8.640625 8.640624 8.640625h138.71875c4.761719 0 8.640626-3.878906 8.640626-8.640625v-30.71875c0-4.761719-3.878907-8.640625-8.640626-8.640625zm0 0"/><path d="m404.085938 297.726562h-162c-1.65625 0-3-1.34375-3-3s1.34375-3 3-3h162c1.65625 0 3 1.34375 3 3s-1.34375 3-3 3zm0 0"/><path d="m404.085938 334.726562h-162c-1.65625 0-3-1.34375-3-3s1.34375-3 3-3h162c1.65625 0 3 1.34375 3 3s-1.34375 3-3 3zm0 0"/><path d="m404.085938 371.726562h-162c-1.65625 0-3-1.34375-3-3s1.34375-3 3-3h162c1.65625 0 3 1.34375 3 3s-1.34375 3-3 3zm0 0"/><path d="m404.085938 408.726562h-162c-1.65625 0-3-1.34375-3-3s1.34375-3 3-3h162c1.65625 0 3 1.34375 3 3s-1.34375 3-3 3zm0 0"/></g><path d="m246.171875 10.996094c-4.898437-4.898438-11.640625-7.941406-19.058594-7.941406-14.859375 0-27 12.160156-27 27v97.761718c0 14.859375 12.140625 27 27 27 14.839844 0 27-12.140625 27-27v-97.761718c0-7.417969-3.042969-14.160157-7.941406-19.058594zm-19.058594 36.160156c-7.601562 0-13.761719-6.160156-13.761719-13.761719 0-7.597656 6.160157-13.757812 13.761719-13.757812 7.597657 0 13.757813 6.160156 13.757813 13.757812 0 7.601563-6.160156 13.761719-13.757813 13.761719zm0 0" fill="#87796f"/><path d="m227.113281 157.816406c-16.542969 0-30-13.457031-30-30v-97.761718c0-16.539063 13.457031-30.0000005 30-30.0000005 7.972657 0 15.496094 3.1328125 21.179688 8.8203125 5.6875 5.6875 8.820312 13.207031 8.820312 21.179688v97.761718c0 16.542969-13.460937 30-30 30zm0-151.761718c-13.234375 0-24 10.765624-24 24v97.761718c0 13.234375 10.765625 24 24 24s24-10.765625 24-24v-97.761718c0-6.367188-2.507812-12.382813-7.0625-16.9375-4.550781-4.554688-10.570312-7.0625-16.9375-7.0625zm0 44.101562c-9.242187 0-16.761719-7.519531-16.761719-16.761719 0-9.242187 7.519532-16.757812 16.761719-16.757812 9.242188 0 16.757813 7.515625 16.757813 16.757812 0 9.242188-7.515625 16.761719-16.757813 16.761719zm0-27.519531c-5.933593 0-10.761719 4.824219-10.761719 10.757812 0 5.933594 4.828126 10.761719 10.761719 10.761719 5.929688 0 10.757813-4.828125 10.757813-10.761719 0-5.933593-4.824219-10.757812-10.757813-10.757812zm0 0" fill="#3a312a"/><path d="m415.894531 122.574219h-30c17.222657 0 31.222657 14 31.222657 31.203125v260.578125c0 17.21875-14 31.21875-31.222657 31.21875h30c17.222657 0 31.222657-14 31.222657-31.21875v-260.578125c0-17.203125-14-31.203125-31.222657-31.203125zm0 0" fill="#d34e5c"/></svg>