<svg height="512pt" viewBox="-77 0 512 512.00135" width="512pt" xmlns="http://www.w3.org/2000/svg"><path d="m164.300781 2.296875c-41.699219 8.179687-94.03125 31.070313-117.800781 84.238281-25.238281 56.445313-3.566406 127.652344 46.714844 196.257813s59.816406 124.183593 59.816406 124.183593l71.085938 1.738282s15.605468-93.789063 32.941406-118.972656c17.339844-25.183594 53.75-86.839844 55.484375-128.523438s-37.277344-180.6875-148.242188-158.921875zm0 0" fill="#7f8194"/><path d="m164.300781 2.296875c-5.761719 1.128906-11.734375 2.554687-17.800781 4.289063 66.523438 25.941406 91.136719 121.332031 89.753906 154.628906-1.734375 41.683594-38.144531 103.34375-55.484375 128.527344-13.265625 19.269531-25.515625 78.707031-30.539062 105.558593 2.078125 7.484375 2.800781 11.675781 2.800781 11.675781l71.085938 1.738282s15.605468-93.789063 32.941406-118.972656c17.339844-25.183594 53.75-86.84375 55.484375-128.527344 1.734375-41.679688-37.277344-180.683594-148.242188-158.917969zm0 0" fill="#6e7081"/><path d="m356.496094 476.535156-23.515625-98.503906c-7.382813-24.332031-32.191407-55.117188-71.898438-55.117188l-29.285156.015626c-5.6875.003906-10.296875-4.613282-10.296875-10.308594v-32.753906c0-13.089844-7.769531-23.695313-17.351562-23.695313h-50.816407c-9.585937 0-17.355469 10.605469-17.355469 23.695313v32.738281c0 5.691406-4.605468 10.308593-10.292968 10.308593h-29.472656c-39.707032 0-61.746094 26.875-71.898438 55.117188l-23.515625 98.503906c-4.320313 18.101563 9.503906 35.464844 28.238281 35.464844h47.273438l93.410156-27.300781 111.199219 27.300781h47.339843c18.734376 0 32.558594-17.363281 28.238282-35.464844zm0 0" fill="#fee2d8"/><path d="m356.496094 476.535156-23.515625-98.503906c-7.382813-24.332031-32.191407-55.117188-71.898438-55.117188l-29.285156.015626c-5.6875.003906-10.296875-4.613282-10.296875-10.308594v-32.753906c0-13.089844-7.769531-23.695313-17.351562-23.695313h-36.410157c9.582031 0 17.351563 10.605469 17.351563 23.695313v15.480468c0 15.234375 12.332031 27.582032 27.539062 27.574219l12.042969-.007813c39.707031 0 64.515625 30.785157 71.898437 55.117188l23.515626 98.503906c4.320312 18.101563-9.503907 35.464844-28.238282 35.464844h36.410156c18.734376 0 32.558594-17.363281 28.238282-35.464844zm0 0" fill="#ffd0c6"/><path d="m281.089844 325.710938c-6.175782-1.785157-12.84375-2.796876-20.007813-2.796876h-26.816406c-8.792969 23.792969-27.058594 61.246094-54.886719 61.246094-27.832031 0-47.167968-37.453125-56.644531-61.246094h-26.523437c-7.71875 0-14.761719 1.023438-21.1875 2.871094-49.863282 120.703125-5.367188 130.824219 1.226562 186.214844h204.667969c8.792969-54.457031 44.628906-65.511719.171875-186.289062zm0 0" fill="#7f8194"/><path d="m281.089844 325.710938c-6.175782-1.785157-12.84375-2.796876-20.007813-2.796876h-26.816406c-.046875.132813-.101563.269532-.148437.402344.042968.003906.085937.007813.128906.015625 7.328125.78125 13.488281 5.867188 15.914062 12.839844 38.605469 111.011719 4.613282 122.988281-3.917968 175.828125h34.675781c8.792969-54.457031 44.628906-65.511719.171875-186.289062zm0 0" fill="#6e7081"/><path d="m280.324219 134.957031c-.570313-.058593-1.136719-.042969-1.703125.019531-13.257813 22.703126-50.183594 24.789063-102.046875 9.78125 15.722656-87.496093-89.398438-14.578124-95.710938-10.132812-.023437.285156-.050781.570312-.074219.855469-1.253906-.46875-2.535156-.65625-3.820312-.523438-8.429688.855469-13.898438 14.976563-12.207031 31.535157 1.695312 16.566406 9.910156 29.292968 18.339843 28.433593.234376-.023437.464844-.0625.691407-.105469 10.375 53.335938 42.214843 91.933594 94.851562 91.933594 52.640625 0 84.480469-38.597656 94.851563-91.933594.230468.046876.460937.082032.691406.105469 8.433594.859375 16.644531-11.867187 18.339844-28.433593 1.695312-16.558594-3.773438-30.679688-12.203125-31.535157zm0 0" fill="#fee2d8"/><path d="m280.324219 134.957031c-.570313-.058593-1.136719-.042969-1.703125.019531-7.296875 12.492188-21.753906 18.746094-41.933594 19.335938-1.5625 55.722656-7.136719 99.824219-75.941406 130.824219 5.675781 1.050781 11.636718 1.617187 17.902344 1.617187 52.636718 0 84.476562-38.597656 94.851562-91.933594.226562.046876.457031.082032.691406.105469 8.429688.859375 16.644532-11.867187 18.335938-28.433593 1.695312-16.558594-3.773438-30.679688-12.203125-31.535157zm0 0" fill="#ffd0c6"/></svg>