<?xml version="1.0" encoding="iso-8859-1"?>
<!-- Generator: Adobe Illustrator 19.0.0, SVG Export Plug-In . SVG Version: 6.00 Build 0)  -->
<svg version="1.1" id="Capa_1" xmlns="http://www.w3.org/2000/svg" xmlns:xlink="http://www.w3.org/1999/xlink" x="0px" y="0px"
	 viewBox="0 0 512.001 512.001" style="enable-background:new 0 0 512.001 512.001;" xml:space="preserve">
<path style="fill:#AAE1FF;" d="M374.919,341.513l-44.553-19.448H181.634l-44.553,19.448c-18.755,8.187-30.548,27.062-29.681,47.509
	l4.542,107.162c0.375,8.842,7.652,15.817,16.501,15.817h255.114c8.85,0,16.127-6.975,16.501-15.817l4.542-107.162
	C405.467,368.575,393.674,349.7,374.919,341.513z"/>
<rect x="214.71" y="264.26" style="fill:#E6AF78;" width="82.58" height="82.58"/>
<path style="fill:#D29B6E;" d="M214.71,288.245c12.635,5.802,26.63,9.045,41.29,9.045c14.661,0,28.656-3.242,41.29-9.045v-23.987
	h-82.58V288.245z"/>
<circle style="fill:#6E4B53;" cx="256" cy="49.548" r="49.548"/>
<ellipse style="fill:#5C414B;" cx="256" cy="136.26" rx="99.1" ry="94.97"/>
<path style="fill:#503441;" d="M222.968,148.645c-33.032-33.032-37.97-61.51-37.19-79.382
	c-17.841,17.174-28.875,40.847-28.875,66.995c0,17.91,5.194,34.636,14.198,48.91L222.968,148.645z"/>
<path style="fill:#F0C087;" d="M350.157,165.506c-0.661-0.215-4.735-0.344-4.735-0.344c-4.381,0-8.581-1.74-11.679-4.838
	l-7.127-7.127c-2.86-2.86-6.641-4.58-10.68-4.806c-16.074-0.9-60.647-4.899-96.06-22.276c-3.78-1.855-8.398-0.844-10.664,2.705
	c-9.277,14.524-20.754,26.049-27.192,31.972c-3.062,2.817-7.035,4.369-11.196,4.369h-5.942c-0.005,0-0.008,0.003-0.013,0.003
	c-0.905,0.017-1.829,0.112-2.771,0.294c-8.037,1.553-13.452,9.236-13.452,17.422v5.984c0,7.899,5.058,15.351,12.75,17.147
	c1.732,0.404,3.418,0.519,5.032,0.39c4.106-0.328,7.691,2.66,8.43,6.712c7.021,38.477,40.637,67.661,81.143,67.661
	s74.122-29.183,81.143-67.661c0.739-4.052,4.324-7.04,8.43-6.712c1.614,0.129,3.3,0.014,5.032-0.39
	c7.692-1.796,12.75-9.248,12.75-17.147v-7.525C363.355,173.568,357.548,167.906,350.157,165.506z"/>
<path style="fill:#E6AF78;" d="M206.452,198.194V132.92c-8.704,12.575-18.617,22.522-24.432,27.872
	c-3.062,2.817-7.035,4.369-11.196,4.369h-5.942c-0.005,0-0.008,0.003-0.013,0.003c-0.905,0.017-1.83,0.112-2.771,0.294
	c-8.037,1.553-13.453,9.236-13.453,17.422v5.984c0,7.899,5.057,15.351,12.75,17.147c1.732,0.404,3.418,0.519,5.032,0.39
	c4.106-0.328,7.691,2.66,8.43,6.712c7.021,38.477,40.637,67.661,81.143,67.661c5.615,0,11.078-0.613,16.375-1.681
	C234.752,271.387,206.452,238.095,206.452,198.194z"/>
<g>
	<path style="fill:#BEEBFF;" d="M151.763,388.567l-30.173-36.208c-9.381,9.591-14.781,22.716-14.19,36.662l4.542,107.162
		c0.375,8.842,7.652,15.817,16.501,15.817h36.718v-86.426C165.161,412.051,160.42,398.956,151.763,388.567z"/>
	<path style="fill:#BEEBFF;" d="M360.238,388.567l30.173-36.208c9.381,9.591,14.781,22.716,14.19,36.662l-4.542,107.162
		c-0.375,8.842-7.652,15.817-16.501,15.817H346.84v-86.426C346.839,412.051,351.58,398.956,360.238,388.567z"/>
	<path style="fill:#BEEBFF;" d="M311.388,303.13c-3.225-3.225-8.454-3.225-11.678,0l-39.921,39.921
		c-2.092,2.092-5.484,2.092-7.577,0l-39.921-39.921c-3.225-3.225-8.454-3.225-11.678,0l-18.935,18.935l30.556,49.598
		c2.658,4.314,8.537,5.239,12.391,1.95l18.314-15.628c1.891-1.613,4.804-0.27,4.804,2.216V512h16.516V360.2
		c0-2.486,2.913-3.829,4.804-2.216l18.314,15.628c3.854,3.289,9.734,2.363,12.391-1.95l30.556-49.598L311.388,303.13z"/>
	<path style="fill:#BEEBFF;" d="M189.935,445.935h33.032c4.561,0,8.258-3.697,8.258-8.258v-8.258c0-4.561-3.697-8.258-8.258-8.258
		h-33.032c-4.561,0-8.258,3.697-8.258,8.258v8.258C181.677,442.238,185.375,445.935,189.935,445.935z"/>
</g>
<g>
</g>
<g>
</g>
<g>
</g>
<g>
</g>
<g>
</g>
<g>
</g>
<g>
</g>
<g>
</g>
<g>
</g>
<g>
</g>
<g>
</g>
<g>
</g>
<g>
</g>
<g>
</g>
<g>
</g>
</svg>
