<svg height="512pt" viewBox="-78 0 512 512.00043" width="512pt" xmlns="http://www.w3.org/2000/svg"><path d="m312.734375 298.371094c-26.621094-27.660156-37.914063-19.816406-31.019531-42.21875 6.894531-22.402344 32.464844-34.46875 22.984375-59.453125-9.476563-24.988281 6.460937-40.929688 9.910156-65.054688 3.445313-24.125 0-61.175781-15.507813-69.792969-15.511718-8.613281-39.207031-8.183593-43.511718-27.140624-4.308594-18.953126-37.875-37.046876-54.554688-34.464844-16.683594 2.585937-31.332031 15.511718-51.148437 8.617187-19.816407-6.894531-25.847657 33.601563-60.3125 23.265625-15.769531-4.730468-37.050781 19.816406-34.464844 44.804688 2.582031 24.984375.863281 25.371094-16.371094 39.769531-28.714843 23.988281-23.542969 74.824219-2.003906 96.367187 21.542969 21.539063 43.082031 28.433594 31.878906 49.113282-11.199219 20.679687-36.769531 15.507812-35.90625 38.773437.859375 23.261719-12.34375 8.613281-21.820312 37.046875-9.480469 28.433594 0 76.15625 24.125 80.191406 24.125 4.035157 42.5-43.140624 87.304687-33.660156 44.804688 9.476563 80.128906 29.292969 108.5625 12.0625 28.433594-17.234375 22.285156-1.722656 56.75 8.613282 34.464844 10.339843 76.523438-53.417969 25.105469-106.839844zm0 0" fill="#ffe177"/><path d="m312.734375 298.371094c-26.621094-27.660156-37.914063-19.816406-31.019531-42.21875 6.894531-22.402344 32.464844-34.46875 22.984375-59.453125-9.476563-24.988281 6.460937-40.929688 9.910156-65.054688 3.445313-24.125 0-61.175781-15.507813-69.792969-15.511718-8.613281-39.207031-8.183593-43.511718-27.140624-4.308594-18.953126-37.875-37.046876-54.554688-34.464844-15.96875 2.476562-30.074218 14.410156-48.628906 9.382812 10.855469 6.554688 20.136719 15.710938 22.265625 25.082032 4.308594 18.957031 28.003906 18.527343 43.511719 27.140624 15.507812 8.617188 18.957031 45.667969 15.507812 69.792969-3.445312 24.125-19.386718 40.066407-9.910156 65.054688 9.480469 24.984375-16.089844 37.050781-22.984375 59.453125-6.890625 22.398437 4.398437 14.558594 31.019531 42.21875 32.285156 33.542968 27.710938 71.160156 11.308594 91.949218 15.277344-5.632812 16.128906 6.378907 44.5 14.890626 34.46875 10.339843 76.527344-53.417969 25.109375-106.839844zm0 0" fill="#ffcf5c"/><path d="m220.148438 359.023438c0 12.984374-7.722657 23.507812-17.246094 23.507812h-50.507813c-9.527343 0-17.25-10.523438-17.25-23.507812v-87.328126c0-12.984374 7.722657-23.507812 17.25-23.507812h50.507813c9.523437 0 17.246094 10.519531 17.246094 23.507812zm0 0" fill="#fee2d8"/><path d="m202.902344 248.1875h-24.125c9.523437 0 17.246094 10.519531 17.246094 23.507812v87.328126c0 12.984374-7.722657 23.507812-17.246094 23.507812h24.125c9.523437 0 17.246094-10.523438 17.246094-23.507812v-87.328126c0-12.984374-7.722657-23.507812-17.246094-23.507812zm0 0" fill="#ffd0c6"/><path d="m354.320312 476.8125-23.371093-97.734375c-7.335938-24.144531-31.996094-54.6875-71.460938-54.6875h-39.328125l-.058594.089844c-20.242187 30.171875-64.777343 30.125-84.953124-.089844h-39.523438c-39.46875 0-61.371094 26.664063-71.460938 54.6875l-23.371093 97.734375c-4.296875 17.957031 9.445312 35.1875 28.0625 35.1875h58.375l91.097656-26.945312 82.824219 26.945312h65.101562c18.621094 0 32.363282-17.230469 28.066406-35.1875zm0 0" fill="#fee2d8"/><path d="m354.320312 476.8125-23.371093-97.734375c-7.335938-24.144531-31.996094-54.6875-71.460938-54.6875h-34.703125c39.464844 0 64.121094 30.542969 71.457032 54.6875l23.375 97.734375c4.292968 17.957031-9.445313 35.1875-28.066407 35.1875h34.703125c18.621094 0 32.363282-17.230469 28.066406-35.1875zm0 0" fill="#ffd0c6"/><path d="m280 138.171875c-4.453125 7.960937-10.667969 15.363281-26.996094 7.691406-22.679687-10.652343-10.339844-18.957031-35.015625-.863281s-16.683593.863281-48.5625-17.234375c-31.878906-18.09375-28.433593 15.511719-56.007812 24.128906-19.925781 6.226563-30.332031-3.855469-38.195313-13.75-7.648437 2.074219-12.449218 15.46875-10.855468 31.046875 1.683593 16.4375 9.847656 29.0625 18.226562 28.210938.230469-.023438.460938-.058594.6875-.101563 10.308594 52.917969 41.957031 91.210938 94.277344 91.210938 52.316406 0 83.960937-38.292969 94.273437-91.210938.226563.042969.453125.078125.6875.101563 8.378907.851562 16.542969-11.773438 18.226563-28.210938 1.585937-15.503906-3.164063-28.847656-10.746094-31.019531zm0 0" fill="#fee2d8"/><path d="m280 138.171875c-4.453125 7.960937-10.667969 15.363281-26.996094 7.691406-13.527344-6.355469-14.597656-11.867187-18.496094-11.449219 5.828126 62.015626-19.898437 130.914063-74.742187 152.492188 5.640625 1.046875 11.566406 1.605469 17.792969 1.605469 52.316406 0 83.964844-38.292969 94.273437-91.214844.226563.042969.453125.082031.6875.105469 8.378907.851562 16.542969-11.773438 18.226563-28.210938 1.585937-15.503906-3.164063-28.847656-10.746094-31.019531zm0 0" fill="#ffd0c6"/><path d="m64.0625 431.492188c-2.058594 41.253906 14.496094 68.960937 23.167969 80.507812h173.921875c11.417968-12.695312 34.476562-44.304688 26.476562-85.675781-10.5-54.285157-67.527344-101.84375-67.527344-101.84375-20.242187 30.171875-64.777343 30.125-84.953124-.089844 0 0-68.316407 51.527344-71.085938 107.101563zm0 0" fill="#787ebe"/><path d="m287.628906 426.324219c-10.5-54.285157-67.527344-101.84375-67.527344-101.84375-8.089843 12.0625-20.066406 19.277343-32.816406 21.6875 17.253906 18.976562 39.300782 48.414062 45.4375 80.15625 8.003906 41.371093-15.054687 72.980469-26.472656 85.675781h54.902344c11.417968-12.695312 34.476562-44.304688 26.476562-85.675781zm0 0" fill="#5a69b4"/></svg>