<svg enable-background="new 0 0 64 64" height="512" viewBox="0 0 64 64" width="512" xmlns="http://www.w3.org/2000/svg"><path d="m20 17.601s-1-2-3-2c0 0 1-5 8-6 0 0-1-2-3-2 0 0 3-3 7 0 0 0 0-4 2-3s0 4 0 4 5-3 10 0 7 9 7 9-2-1-3 0c0 0 1 1 2 4 0 0-3 1-4 3s0 6-5 8l-16-11z" fill="#ffe885"/><path d="m31 10.601s5-3 10 0c2.977 1.786 4.883 4.629 5.945 6.643.59.129 1.055.357 1.055.357s-2-6-7-9c-3.734-2.241-7.467-1.135-9.118-.431-.041 1.163-.882 2.431-.882 2.431z" fill="#fffa96"/><path d="m29 9.601s0-4 2-3c.322.161.531.377.671.62.319-.926.425-2.072-.671-2.62-2-1-2 3-2 3-4-3-7 0-7 0 .901 0 1.588.409 2.083.855 1.244-.352 2.959-.323 4.917 1.145z" fill="#fffa96"/><path d="m25 11.601s-.549-1.086-1.638-1.657c-5.509 1.477-6.362 5.657-6.362 5.657.303 0 .576.056.833.134.969-1.531 3.001-3.539 7.167-4.134z" fill="#fffa96"/><path d="m38 33.101c-.1 0-.199-.03-.283-.088l-16-11c-.07-.048-.126-.113-.164-.188l-2-3.999c-.018-.035-.904-1.725-2.553-1.725-.15 0-.292-.067-.387-.183s-.133-.269-.104-.415c.042-.211 1.072-4.986 7.64-6.267-.412-.499-1.137-1.135-2.149-1.135-.202 0-.385-.122-.462-.309-.078-.187-.035-.402.108-.545.031-.031 2.978-2.898 6.906-.55.098-.873.372-2.081 1.14-2.556.308-.19.824-.343 1.532.012.56.28.936.729 1.087 1.299.183.689.02 1.453-.217 2.086 1.892-.73 5.503-1.562 9.164.634 5.1 3.06 7.133 9.019 7.217 9.271.064.191.006.402-.146.535-.153.133-.371.159-.55.07-.014-.008-1.24-.591-2.043-.322.405.578 1.078 1.73 1.74 3.717.087.262-.054.545-.315.633-.028.009-2.817.961-3.711 2.749-.239.478-.354 1.113-.486 1.85-.368 2.038-.872 4.829-4.775 6.391-.063.023-.126.035-.189.035zm-15.61-11.839 15.669 10.772c3.165-1.365 3.564-3.579 3.918-5.538.14-.778.273-1.514.576-2.119.839-1.679 2.885-2.685 3.817-3.07-.883-2.468-1.717-3.346-1.726-3.355-.19-.195-.191-.511.002-.704.698-.697 1.712-.653 2.481-.477-.792-1.793-2.805-5.593-6.385-7.741-4.673-2.804-9.438-.027-9.486 0-.201.12-.457.083-.618-.084-.161-.169-.184-.427-.055-.622.29-.436.99-1.756.76-2.615-.079-.297-.259-.506-.567-.66-.359-.181-.503-.089-.559-.056-.493.305-.717 1.709-.718 2.608 0 .189-.107.362-.277.447-.17.084-.372.065-.523-.047-2.406-1.805-4.388-1.26-5.467-.672 1.455.562 2.177 1.974 2.214 2.048.072.144.07.313-.004.456-.075.142-.213.24-.372.263-5.271.753-6.944 3.81-7.416 5.067 1.842.356 2.75 2.13 2.792 2.214z" fill="#785ae6"/><path d="m25.5 38.5s-4 2-8 4-4 8-4 12 0 8 0 8h43s0-3 0-8 0-9-4-12-9-5-9-5z" fill="#8296dc"/><path d="m52.5 42.5c-4-3-9-5-9-5l-18 1s-4 2-8 4-4 8-4 12v2c0-4 0-10 4-12s8-4 8-4l18-1s5 2 9 5 4 7 4 12c0-.626 0-1.29 0-2 0-5 0-9-4-12z" fill="#96aaf0"/><g fill="#6e82c8"><path d="m40 45.182c-3.927-.857-3.949-4.522-5.5-4.682s-4 6-4 6 1.462-7.794 4-9c.924-.439 2.252 2.623 2.755 3.68s2.745 4.002 2.745 4.002z"/><path d="m30.5 63c-.276 0-.5-.224-.5-.5v-16c0-.276.224-.5.5-.5s.5.224.5.5v16c0 .276-.224.5-.5.5z"/><path d="m45 54h-10v-3h10zm-9-1h8v-1h-8z"/><path d="m45 63h-10v-10h10zm-9-1h8v-8h-8z"/></g><path d="m30.5 46.5s2-9 4-9 3 6 5 7 2-1 3-4 1-4 1-4-1-6-4-6-10 0-12 4-3 7-3 9 2-4 3-4 3 7 3 7z" fill="#8296dc"/><path d="m30.5 46.5s2-9 4-9c1.385 0 3.976-1.855 5-2.97v-4.79l-11.055 4.76v7l1.019 1.755c.582 1.661 1.036 3.245 1.036 3.245z" fill="#ffb4be"/><path d="m30.5 47c-.217 0-.417-.143-.48-.362-.083-.289-2.02-7.091-2.02-9.138 0-2.182 1.1-3.307 1.146-3.354.195-.195.512-.195.707 0 .194.194.195.509.003.704-.035.037-.856.905-.856 2.65 0 1.908 1.961 8.793 1.981 8.862.076.266-.078.543-.344.618-.046.014-.092.02-.137.02z" fill="#6e82c8"/><path d="m34.5 38c-.276 0-.5-.224-.5-.5s.224-.5.5-.5c1.676 0 3.872-1.508 4.433-3.043.271-.744.113-1.37-.47-1.862-.211-.178-.238-.493-.06-.704s.493-.238.705-.06c.912.769 1.184 1.822.765 2.969-.708 1.936-3.269 3.7-5.373 3.7z" fill="#6e82c8"/><path d="m30.5 47c-.036 0-.072-.004-.109-.012-.27-.061-.439-.327-.38-.597.49-2.203 2.261-9.391 4.489-9.391 1.386 0 2.219 1.814 3.101 3.735.63 1.373 1.345 2.929 2.123 3.317.382.191.662.249.832.177.378-.167.647-1.11.959-2.203.146-.51.308-1.077.511-1.685.49-1.472.729-2.437.843-2.986.056-.271.32-.45.591-.388.27.056.444.32.388.591-.173.838-.467 1.881-.874 3.1-.197.593-.355 1.146-.498 1.644-.413 1.443-.71 2.487-1.519 2.843-.46.202-1.011.138-1.682-.197-1.092-.546-1.817-2.124-2.584-3.795-.644-1.405-1.446-3.153-2.191-3.153-.956 0-2.587 4.451-3.512 8.608-.051.234-.259.392-.488.392z" fill="#6e82c8"/><path d="m30.5 47c-.217 0-.417-.143-.48-.362-.81-2.835-1.99-6.074-2.558-6.609-.296.26-1.002 1.671-1.389 2.445-.746 1.493-1.021 2.044-1.587 1.92-.486-.116-.486-.681-.486-.894 0-1.375.425-3.123 1.299-5.344.102-.257.393-.386.648-.281.257.101.383.391.282.648-.54 1.369-.903 2.565-1.088 3.574.012-.024.024-.048.036-.071 1.03-2.057 1.594-3.026 2.323-3.026.341 0 1.377 0 3.481 7.362.076.266-.078.543-.344.618-.046.014-.092.02-.137.02zm-5.49-3.325h.01z" fill="#6e82c8"/><path d="m25.765 38.84c-.061 0-.123-.011-.183-.035-.257-.101-.383-.391-.282-.648.459-1.165 1.049-2.471 1.753-3.88 2.138-4.277 9.362-4.277 12.447-4.277 3.385 0 4.45 6.155 4.493 6.418.007.136 0 .44-.145 1.141-.056.271-.323.448-.591.388-.271-.056-.444-.32-.389-.591.126-.606.132-.859.132-.861-.253-1.466-1.39-5.495-3.5-5.495-2.9 0-9.691 0-11.553 3.724-.691 1.383-1.27 2.661-1.717 3.8-.078.196-.266.316-.465.316z" fill="#785ae6"/><path d="m21.5 14.5v14c0 3.314 2.686 6 6 6h6c3.314 0 6-2.686 6-6h2c1.657 0 3-1.343 3-3v-2c0-1.657-1.343-3-3-3h-2l-3-6z" fill="#ffc8d2"/><path d="m13.5 62.5h43s0-.708 0-2h-43z" fill="#6e82c8"/><path d="m47.5 63c-.276 0-.5-.224-.5-.5v-12c0-.276.224-.5.5-.5s.5.224.5.5v12c0 .276-.224.5-.5.5z" fill="#6e82c8"/><path d="m17.5 63c-.276 0-.5-.224-.5-.5v-12c0-.276.224-.5.5-.5s.5.224.5.5v12c0 .276-.224.5-.5.5z" fill="#6e82c8"/><g fill="#785ae6"><path d="m23.5 25c-.276 0-.5-.224-.5-.5v-3c0-.276.224-.5.5-.5s.5.224.5.5v3c0 .276-.224.5-.5.5z"/><path d="m33.5 21c-.128 0-.256-.049-.354-.146-2.588-2.587-4.228-1.063-4.296-.997-.198.19-.514.188-.706-.008-.192-.195-.192-.508.001-.702.023-.023 2.391-2.315 5.707 1 .195.195.195.512 0 .707-.096.097-.224.146-.352.146z"/><path d="m24.5 20c-.127 0-.254-.048-.352-.145-.111-.108-1.123-1.033-2.343-.083-.218.172-.532.13-.702-.086-.17-.218-.131-.531.086-.701 1.554-1.217 3.076-.426 3.664.161.195.195.195.512 0 .707-.097.098-.225.147-.353.147z"/><path d="m32.5 35h-5c-3.584 0-6.5-2.916-6.5-6.5v-8.826c0-.276.224-.5.5-.5s.5.224.5.5v8.826c0 3.032 2.467 5.5 5.5 5.5h5c.276 0 .5.224.5.5s-.224.5-.5.5z"/><path d="m30.5 31h-5c-.276 0-.5-.224-.5-.5s.224-.5.5-.5h5c.403 0 .494-.275.5-.506.007-.271.229-.491.5-.491.002 0 .004 0 .006.001.274.003.494.223.494.496 0 .603-.399 1.5-1.5 1.5z"/><path d="m25.5 28c-1.153 0-2.5-.393-2.5-1.5 0-1.064 1.71-4.538 2.053-5.224.124-.246.423-.348.671-.224.247.124.347.424.224.671-.809 1.618-1.948 4.169-1.948 4.777 0 .301.903.5 1.5.5.276 0 .5.224.5.5s-.224.5-.5.5z"/><path d="m30.5 25c-.276 0-.5-.224-.5-.5v-3c0-.276.224-.5.5-.5s.5.224.5.5v3c0 .276-.224.5-.5.5z"/><path d="m56.5 63h-43c-.276 0-.5-.224-.5-.5v-8c0-4.105 0-10.309 4.276-12.447l8-4c.247-.125.546-.023.671.224.124.247.023.547-.224.671l-8 4c-3.723 1.861-3.723 7.693-3.723 11.552v7.5h42v-7.5c0-4.889 0-8.75-3.8-11.6-3.898-2.924-8.836-4.916-8.886-4.937-.256-.103-.381-.394-.279-.649.103-.257.396-.382.65-.278.207.082 5.107 2.059 9.114 5.063 4.201 3.151 4.201 7.437 4.201 12.401v8c0 .276-.224.5-.5.5z"/><path d="m38.785 32.213c-.084 0-.169-.021-.247-.065-.24-.137-.324-.441-.188-.682.425-.747.65-1.6.65-2.466v-.5c0-.276.224-.5.5-.5h2c1.378 0 2.5-1.121 2.5-2.5v-2c0-1.379-1.122-2.5-2.5-2.5h-1c-.276 0-.5-.224-.5-.5s.224-.5.5-.5h1c1.93 0 3.5 1.57 3.5 3.5v2c0 1.93-1.57 3.5-3.5 3.5h-1.5c0 1.039-.27 2.063-.78 2.96-.093.162-.262.253-.435.253z"/></g><path d="m21 18.601v-6h19v5c0 5-2 8-2 8l-3-7c-3-1-6-4-6-4-1 1 0 3 0 3-3 0-5-3-5-3s-2 2-3 4z" fill="#ffe885"/></svg>