<svg enable-background="new 0 0 64 64" height="512" viewBox="0 0 64 64" width="512" xmlns="http://www.w3.org/2000/svg"><path d="m44.5 17c0 8.5-1 7.5-1.791 9.453-.29.717-.209 1.445-.209 2.047 0 3-1.387 2.911-4.193 2.911v-13.911z" fill="#8278b4"/><path d="m38.5 31.923c-.275 0-.499-.223-.5-.498-.001-.276.222-.501.498-.502l.236-.001c1.237-.004 2.131-.007 2.631-.304.326-.193.658-.597.652-2.121l-.006-.313c-.015-.549-.033-1.232.243-1.922.103-.257.395-.382.65-.278.256.103.381.394.279.649-.199.498-.186 1.02-.172 1.524l.006.336c.006 1.613-.334 2.506-1.141 2.985-.734.436-1.743.438-3.138.443l-.236.001c-.001.001-.002.001-.002.001z" fill="#785ae6"/><path d="m25.5 38.5s-4 2-8 4-4 8-4 12 0 8 0 8h43s0-3 0-8 0-9-4-12-9-5-9-5z" fill="#e678a0"/><path d="m52.5 42.5c-4-3-9-5-9-5l-18 1s-4 2-8 4-4 8-4 12v2c0-4 0-10 4-12s8-4 8-4l18-1s5 2 9 5 4 7 4 12c0-.626 0-1.29 0-2 0-5 0-9-4-12z" fill="#fa8cb4"/><path d="m40 45.182c-3.927-.857-3.949-4.522-5.5-4.682s-4 6-4 6 1.462-7.794 4-9c.924-.439 2.252 2.623 2.755 3.68s2.745 4.002 2.745 4.002z" fill="#d2648c"/><path d="m30.5 63c-.276 0-.5-.224-.5-.5v-16c0-.276.224-.5.5-.5s.5.224.5.5v16c0 .276-.224.5-.5.5z" fill="#d2648c"/><path d="m44.5 54h-9c-.276 0-.5-.224-.5-.5v-2c0-.276.224-.5.5-.5h9c.276 0 .5.224.5.5v2c0 .276-.224.5-.5.5zm-8.5-1h8v-1h-8z" fill="#d2648c"/><path d="m44.5 63h-9c-.276 0-.5-.224-.5-.5v-9c0-.276.224-.5.5-.5h9c.276 0 .5.224.5.5v9c0 .276-.224.5-.5.5zm-8.5-1h8v-8h-8z" fill="#d2648c"/><path d="m30.5 46.5s2-9 4-9 3 6 5 7 2-1 3-4 1-4 1-4-1-6-4-6-10 0-12 4-3 7-3 9 2-4 3-4 3 7 3 7z" fill="#e678a0"/><path d="m30.5 46.5s2-9 4-9c1.385 0 3.976-1.855 5-2.97l-1-3.79-10.055 3.76v7l1.019 1.755c.582 1.661 1.036 3.245 1.036 3.245z" fill="#ffb4be"/><path d="m30.5 47c-.217 0-.417-.143-.48-.362-.083-.289-2.02-7.091-2.02-9.138 0-2.182 1.1-3.307 1.146-3.354.195-.195.512-.195.707 0 .194.194.195.509.003.704-.035.037-.856.905-.856 2.65 0 1.908 1.961 8.793 1.981 8.862.076.266-.078.543-.344.618-.046.014-.092.02-.137.02z" fill="#d2648c"/><path d="m34.5 38c-.276 0-.5-.224-.5-.5s.224-.5.5-.5c1.676 0 3.872-1.508 4.433-3.043.271-.744.113-1.37-.47-1.862-.211-.178-.238-.493-.06-.704s.493-.238.705-.06c.912.769 1.184 1.822.765 2.969-.708 1.936-3.269 3.7-5.373 3.7z" fill="#d2648c"/><path d="m30.5 47c-.036 0-.072-.004-.109-.012-.27-.061-.439-.327-.38-.597.49-2.203 2.261-9.391 4.489-9.391 1.386 0 2.219 1.814 3.101 3.735.63 1.373 1.345 2.929 2.123 3.317.382.19.662.25.832.177.378-.167.647-1.11.959-2.203.146-.51.308-1.077.511-1.685.49-1.472.729-2.437.843-2.986.056-.271.32-.451.591-.388.27.056.444.32.388.591-.173.838-.467 1.881-.874 3.1-.197.593-.355 1.146-.498 1.644-.413 1.443-.71 2.487-1.519 2.843-.46.202-1.011.137-1.682-.197-1.092-.546-1.817-2.124-2.584-3.795-.644-1.405-1.446-3.153-2.191-3.153-.956 0-2.587 4.451-3.512 8.608-.051.234-.259.392-.488.392z" fill="#d2648c"/><path d="m30.5 47c-.217 0-.417-.143-.48-.362-.81-2.835-1.99-6.074-2.558-6.609-.296.26-1.002 1.671-1.389 2.445-.746 1.493-1.021 2.051-1.587 1.92-.486-.116-.486-.681-.486-.894 0-1.375.425-3.123 1.299-5.344.102-.256.393-.387.648-.281.257.101.383.391.282.648-.54 1.369-.903 2.565-1.088 3.574.012-.024.024-.048.036-.071 1.03-2.057 1.594-3.026 2.323-3.026.341 0 1.377 0 3.481 7.362.076.266-.078.543-.344.618-.046.014-.092.02-.137.02zm-5.49-3.325h.01z" fill="#d2648c"/><path d="m25.765 38.84c-.061 0-.123-.011-.183-.035-.257-.101-.383-.391-.282-.648.459-1.165 1.049-2.471 1.753-3.88 2.138-4.277 9.362-4.277 12.447-4.277 3.385 0 4.45 6.155 4.493 6.418.007.136 0 .44-.145 1.141-.056.271-.323.447-.591.388-.271-.056-.444-.32-.389-.591.126-.606.132-.859.132-.861-.253-1.466-1.39-5.495-3.5-5.495-2.9 0-9.691 0-11.553 3.724-.691 1.383-1.27 2.661-1.717 3.8-.078.196-.266.316-.465.316z" fill="#785ae6"/><path d="m13.5 62.5h43s0-.708 0-2h-43z" fill="#d2648c"/><path d="m47.5 63c-.276 0-.5-.224-.5-.5v-12c0-.276.224-.5.5-.5s.5.224.5.5v12c0 .276-.224.5-.5.5z" fill="#d2648c"/><path d="m17.5 63c-.276 0-.5-.224-.5-.5v-12c0-.276.224-.5.5-.5s.5.224.5.5v12c0 .276-.224.5-.5.5z" fill="#d2648c"/><path d="m56.5 63h-43c-.276 0-.5-.224-.5-.5v-8c0-4.105 0-10.309 4.276-12.447l8-4c.247-.124.546-.022.671.224.124.247.023.547-.224.671l-8 4c-3.723 1.861-3.723 7.693-3.723 11.552v7.5h42v-7.5c0-4.889 0-8.75-3.8-11.6-3.898-2.924-8.836-4.916-8.886-4.937-.256-.103-.381-.394-.279-.649.103-.257.396-.381.65-.278.207.082 5.107 2.059 9.114 5.063 4.201 3.151 4.201 7.437 4.201 12.401v8c0 .276-.224.5-.5.5z" fill="#785ae6"/><path d="m44.5 17.5h7s1-3-7-3z" fill="#aad2ff"/><path d="m52.123 17.353c.985-.598-.683-2.853-7.623-2.853v1c4.636 0 6.91 1.006 7.623 1.853z" fill="#bee6ff"/><path d="m19.5 17.5s-1 1.586-1 3c0 1 1 0 1 0s0 3 2 4v-7z" fill="#8278b4"/><path d="m19.5 17.5s-.583.93-.858 2h2.858v-2z" fill="#826ec8"/><path d="m44.5 17-6.193.5v2l6.138.495c.034-.844.055-1.821.055-2.995z" fill="#826ec8"/><path d="m21.5 17.5v11c0 3.314 2.686 6 6 6h5c3.866 0 7-3.134 7-7v-1h2c1.657 0 3-1.343 3-3v-2c0-1.657-1.343-3-3-3h-2l-3-1z" fill="#ffc8d2"/><path d="m30.5 31h-5c-.276 0-.5-.224-.5-.5s.224-.5.5-.5h5c.403 0 .494-.275.5-.506.007-.271.229-.491.5-.491.002 0 .004 0 .006.001.274.003.494.223.494.496 0 .603-.399 1.5-1.5 1.5z" fill="#785ae6"/><path d="m41.5 18.5h-2l-3-1h-15v2h15l3 1h2c1.657 0 3 1.343 3 3v-2c0-1.657-1.343-3-3-3z" fill="#ffb4be"/><path d="m23.5 25c-.276 0-.5-.224-.5-.5v-3c0-.276.224-.5.5-.5s.5.224.5.5v3c0 .276-.224.5-.5.5z" fill="#785ae6"/><path d="m35.538 17.5s.962 2 .962 4 0 3 1 3 3.008-3 3.008-7z" fill="#8278b4"/><path d="m40.336 19.5c.107-.629.172-1.298.172-2h-4.97s.406.855.691 2z" fill="#826ec8"/><g fill="#785ae6"><path d="m44.411 20.939c-.008 0-.016 0-.024-.001-.276-.013-.489-.247-.476-.522.045-.955.065-2.108.06-3.427-.001-.276.222-.501.498-.502h.002c.275 0 .499.223.5.498.005 1.354-.015 2.491-.061 3.478-.013.267-.234.476-.499.476z"/><path d="m39.5 30.62c-.276 0-.5-.224-.5-.5v-3.62c0-.276.224-.5.5-.5h2c1.378 0 2.5-1.121 2.5-2.5v-2c0-1.379-1.122-2.5-2.5-2.5h-1c-.276 0-.5-.224-.5-.5s.224-.5.5-.5h1c1.93 0 3.5 1.57 3.5 3.5v2c0 1.93-1.57 3.5-3.5 3.5h-1.5v3.12c0 .276-.224.5-.5.5z"/><path d="m32.5 35h-5c-3.584 0-6.5-2.916-6.5-6.5v-5c0-.276.224-.5.5-.5s.5.224.5.5v5c0 3.032 2.467 5.5 5.5 5.5h5c.276 0 .5.224.5.5s-.224.5-.5.5z"/><path d="m25.5 28c-1.153 0-2.5-.393-2.5-1.5 0-1.064 1.71-4.538 2.053-5.224.124-.247.423-.348.671-.224.247.124.347.424.224.671-.809 1.618-1.948 4.169-1.948 4.777 0 .301.903.5 1.5.5.276 0 .5.224.5.5s-.224.5-.5.5z"/><path d="m30.5 25c-.276 0-.5-.224-.5-.5v-3c0-.276.224-.5.5-.5s.5.224.5.5v3c0 .276-.224.5-.5.5z"/></g><path d="m34.5 3.5h-5c-5.523 0-10 4.477-10 10v4h25v-4c0-5.523-4.477-10-10-10z" fill="#aad2ff"/><path d="m34.5 3.5h-5c-5.523 0-10 4.477-10 10v2c0-5.523 4.477-10 10-10h5c5.523 0 10 4.477 10 10v-2c0-5.523-4.477-10-10-10z" fill="#bee6ff"/><path d="m44.5 18.021h-25c-.288 0-.521-.233-.521-.521v-4c0-5.802 4.72-10.521 10.521-10.521h5c5.801 0 10.521 4.72 10.521 10.521v4c0 .288-.233.521-.521.521zm-24.479-1.042h23.957v-3.479c0-5.227-4.252-9.479-9.479-9.479h-5c-5.227 0-9.479 4.252-9.479 9.479v3.479z" fill="#785ae6"/><path d="m29.5 8.5h-1c-2.761 0-5 2.239-5 5v1h11v-1c0-2.761-2.239-5-5-5z" fill="#8278b4"/><g fill="#785ae6"><path d="m34.5 15.021h-11c-.288 0-.521-.233-.521-.521v-1c0-3.045 2.477-5.521 5.521-5.521h1c3.044 0 5.521 2.477 5.521 5.521v1c0 .288-.233.521-.521.521zm-10.479-1.042h9.957v-.479c0-2.47-2.009-4.479-4.479-4.479h-1c-2.47 0-4.479 2.009-4.479 4.479v.479z"/><path d="m36 18.021h-1.5c-.288 0-.521-.233-.521-.521s.233-.521.521-.521h1.5c.54 0 .979-.438.979-.979s-.439-.979-.979-.979h-1.5c-.288 0-.521-.233-.521-.521s.233-.521.521-.521h1.5c1.115 0 2.021.907 2.021 2.021s-.906 2.021-2.021 2.021z"/><path d="m51.5 18.021h-7c-.288 0-.521-.233-.521-.521s.233-.521.521-.521h7c.247 0 .357-.061.376-.082-.01 0-.044-.111-.203-.274-.75-.773-3.028-1.601-7.173-1.601-.288 0-.521-.233-.521-.521s.233-.521.521-.521c2.597 0 4.773.319 6.293.922 1.344.533 2.115 1.271 2.115 2.022 0 .546-.435 1.097-1.408 1.097z"/><path d="m21.5 25.021c-.078 0-.158-.018-.232-.056-1.533-.766-2.039-2.482-2.206-3.552-.193.064-.396.077-.591-.005-.224-.093-.491-.325-.491-.909 0-1.547 1.037-3.208 1.081-3.278.154-.243.477-.314.718-.163.244.153.317.476.164.719-.009.014-.79 1.27-.906 2.441.035-.029.068-.06.096-.087.149-.149.375-.191.567-.113.195.08.322.271.323.48 0 .027.028 2.693 1.711 3.535.258.128.362.441.233.699-.092.184-.276.289-.467.289z"/><path d="m29.5 20c-.184 0-.36-.102-.448-.276-.123-.247-.023-.548.224-.671.086-.043 2.13-1.053 4.224-1.053.276 0 .5.224.5.5s-.224.5-.5.5c-1.854 0-3.758.938-3.777.947-.071.036-.147.053-.223.053z"/><path d="m24.5 20c-.127 0-.253-.048-.351-.144-.036-.035-.903-.856-2.649-.856-.276 0-.5-.224-.5-.5s.224-.5.5-.5c2.182 0 3.307 1.1 3.354 1.146.195.195.195.512 0 .707-.098.098-.226.147-.354.147z"/></g></svg>