<svg enable-background="new 0 0 64 64" height="512" viewBox="0 0 64 64" width="512" xmlns="http://www.w3.org/2000/svg"><path d="m43.5 37.5s5 2 9 5 4 7 4 12 0 8 0 8h-43s0-4 0-8 0-10 4-12 7-3 7-3z" fill="#e678a0"/><path d="m13.5 62.5h43s0-.708 0-2h-43z" fill="#d2648c"/><path d="m52.5 42.5c-4-3-9-5-9-5l-19 2s-3 1-7 3-4 8-4 12v2c0-4 0-10 4-12s7-3 7-3l19-2s5 2 9 5 4 7 4 12c0-.626 0-1.29 0-2 0-5 0-9-4-12z" fill="#fa8cb4"/><path d="m46.5 63c-.276 0-.5-.224-.5-.5v-12c0-.276.224-.5.5-.5s.5.224.5.5v12c0 .276-.224.5-.5.5z" fill="#d2648c"/><path d="m17.5 63c-.276 0-.5-.224-.5-.5v-12c0-.276.224-.5.5-.5s.5.224.5.5v12c0 .276-.224.5-.5.5z" fill="#d2648c"/><path d="m30.5 63c-.276 0-.5-.224-.5-.5v-12c0-.276.224-.5.5-.5s.5.224.5.5v12c0 .276-.224.5-.5.5z" fill="#d2648c"/><path d="m29.445 34.5v9l1.555 5.5 3-5 5.5-.5v-16.76z" fill="#ffb4be"/><path d="m29.444 44c-.276 0-.5-.224-.5-.5v-9c0-.276.224-.5.5-.5s.5.224.5.5v9c0 .276-.223.5-.5.5z" fill="#785ae6"/><path d="m29.445 36.412s-3.945 1.088-4.945 4.088c-.544 1.633-1.089 3.86-1.472 5.549-.054.236.267.353.385.142.495-.887 1.19-1.691 2.087-1.691 2 0 5 6 5 6z" fill="#e678a0"/><path d="m29.585 38.281-.14-1.869s-3.945 1.088-4.945 4.088c-.084.253-.169.525-.253.802 1.676-1.372 4.051-2.477 5.338-3.021z" fill="#fa8cb4"/><path d="m30.5 51c-.186 0-.361-.104-.447-.276-1.189-2.377-3.388-5.724-4.553-5.724-.703 0-1.285.78-1.65 1.435-.174.312-.543.446-.875.319-.33-.126-.512-.469-.435-.814.146-.646.258-1.362.375-2.12.183-1.18.373-2.401.717-3.434 1.073-3.22 5.499-4.409 5.686-4.458.145-.037.297-.01.417.077.121.086.197.222.208.369l1.056 14.088c.018.238-.135.456-.366.52-.044.012-.089.018-.133.018zm-5-7c1.482 0 3.205 2.378 4.33 4.249l-.837-11.167c-1.16.413-3.719 1.54-4.413 3.621-.317.953-.5 2.131-.677 3.271-.046.295-.09.583-.137.866.529-.559 1.109-.84 1.734-.84z" fill="#d2648c"/><path d="m30.5 51c-.259 0-.479-.2-.498-.462l-1.008-13.457c-.972.344-2.923 1.188-3.885 2.671-.15.231-.459.299-.691.147-.232-.15-.298-.459-.147-.691 1.518-2.341 4.906-3.243 5.049-3.28s.296-.008.417.077c.121.086.196.222.208.369l1.056 14.088c.021.275-.186.516-.461.536-.015.002-.028.002-.04.002z" fill="#785ae6"/><path d="m39.5 44c-.276 0-.5-.224-.5-.5v-16.76c0-.276.224-.5.5-.5s.5.224.5.5v16.76c0 .276-.224.5-.5.5z" fill="#785ae6"/><path d="m30.5 50.5s3-6 5-9 5-7 5-7l3 3s-.642 5.78-1.412 9.62c-.168.84-1.266 1.098-1.772.407-1.827-2.495-5.571-5.516-9.816 2.973z" fill="#e678a0"/><path d="m43.261 39.281c.149-1.068.239-1.781.239-1.781l-3-3s-.398.531-.997 1.346z" fill="#fa8cb4"/><path d="m30.5 51c-.075 0-.151-.017-.223-.053-.176-.087-.277-.264-.277-.447 0-.067.013-.135.042-.2.003-.008.007-.016.011-.023 0 0 .001-.002.002-.004.002-.004.004-.008.006-.013.212-.424 3.062-6.096 5.022-9.037 1.985-2.977 4.986-6.982 5.016-7.022.087-.116.22-.188.364-.199.151-.012.287.042.389.145l3 3c.107.107.16.258.144.409-.006.058-.653 5.846-1.419 9.663-.118.591-.56 1.04-1.152 1.17-.583.129-1.163-.088-1.513-.566-.863-1.178-2.231-2.555-3.833-2.418-1.694.143-3.401 1.894-5.076 5.205-.035.07-.055.109-.058.115-.086.174-.262.275-.445.275zm5.801-6.605c1.533 0 3.054.975 4.418 2.837.165.225.399.201.491.18.076-.017.328-.095.387-.39.669-3.336 1.249-8.211 1.378-9.338l-2.421-2.42c-.845 1.139-3.066 4.155-4.639 6.515-.63.945-1.366 2.202-2.075 3.474.707-.5 1.426-.782 2.156-.844.102-.01.204-.014.305-.014z" fill="#d2648c"/><path d="m30.5 51c-.075 0-.151-.017-.223-.053-.247-.124-.347-.424-.224-.671.123-.246 3.037-6.062 5.031-9.054 1.985-2.977 4.986-6.982 5.016-7.022.087-.116.22-.188.364-.199.151-.012.287.042.389.145l3 3c.195.195.195.512 0 .707s-.512.195-.707 0l-2.591-2.591c-.845 1.139-3.066 4.155-4.639 6.515-1.959 2.939-4.939 8.887-4.969 8.946-.088.176-.264.277-.447.277z" fill="#785ae6"/><circle cx="33" cy="52" fill="#f0dc78" r="1"/><circle cx="33" cy="59" fill="#f0dc78" r="1"/><path d="m56.5 63h-43c-.276 0-.5-.224-.5-.5v-8c0-4.105 0-10.309 4.276-12.447 3.986-1.993 7.035-3.017 7.065-3.027.264-.088.545.054.632.316s-.054.545-.316.632c-.03.01-3.017 1.014-6.935 2.973-3.722 1.862-3.722 7.694-3.722 11.553v7.5h42v-7.5c0-4.889 0-8.75-3.8-11.6-3.898-2.924-8.836-4.916-8.886-4.936-.256-.103-.381-.394-.279-.65.103-.257.396-.382.65-.279.207.083 5.107 2.059 9.114 5.064 4.201 3.151 4.201 7.438 4.201 12.401v8c0 .276-.224.5-.5.5z" fill="#785ae6"/><path d="m21.5 13.5v15c0 3.314 2.686 6 6 6h5c3.866 0 7-3.134 7-7v-1h3c1.105 0 2-.895 2-2v-3c0-1.105-.895-2-2-2h-2v-6z" fill="#ffc8d2"/><path d="m39.04 30.5c2.54 1 3.46-1 3.46-4h-3.293z" fill="#cb783f"/><path d="m39.5 19.5 4.879.518.593-.518c.312-.942.528-1.935.528-3 0-8-7-8-7-8-2-6-9-3-11-4-4.817-2.408-11-2-12 3s2 9 6 9c10 0 12-3 12-3 0 2 2 2 2 4s2 2 4 2z" fill="#cb783f"/><path d="m15.5 9.5c1-5 7.183-5.408 12-3 2 1 9-2 11 4 0 0 6.339.017 6.94 6.933.035-.306.06-.615.06-.933 0-8-7-8-7-8-2-6-9-3-11-4-4.817-2.408-11-2-12 3-.202 1.01-.234 1.975-.134 2.878.032-.289.075-.581.134-.878z" fill="#dc8c50"/><path d="m40.842 18.977c-.197-.852-.938-1.45-1.81-1.508-1.407-.094-2.532-.469-2.532-1.969 0-1.556-1.815-1.901-2.621-2.919-.331-.418-.892-.545-1.34-.255-1.373.888-4.491 2.174-11.039 2.174-3.192 0-5.741-2.551-6.134-6.122-.504 4.582 2.371 8.122 6.134 8.122 10 0 12-3 12-3 0 2 2 2 2 4s2 2 4 2l1.5.159z" fill="#be6432"/><g fill="#785ae6"><path d="m30.5 31h-5c-.276 0-.5-.224-.5-.5s.224-.5.5-.5h5c.403 0 .494-.275.5-.506.007-.273.19-.491.506-.491.274.004.494.224.494.497 0 .603-.399 1.5-1.5 1.5z"/><path d="m30.5 24c-.276 0-.5-.224-.5-.5v-2c0-.276.224-.5.5-.5s.5.224.5.5v2c0 .276-.224.5-.5.5z"/><path d="m23.5 24c-.276 0-.5-.224-.5-.5v-2c0-.276.224-.5.5-.5s.5.224.5.5v2c0 .276-.224.5-.5.5z"/><path d="m33.5 21c-.128 0-.256-.049-.354-.146-2.588-2.586-4.228-1.062-4.296-.997-.198.191-.514.188-.706-.008s-.192-.508.001-.702c.023-.023 2.391-2.316 5.707 1 .195.195.195.512 0 .707-.096.097-.224.146-.352.146z"/><path d="m24.5 20c-.127 0-.255-.048-.353-.145-.116-.114-1.127-1.032-2.342-.082-.22.169-.533.13-.702-.086-.17-.218-.131-.532.086-.702 1.555-1.216 3.077-.426 3.664.162.195.195.195.512 0 .707-.097.097-.225.146-.353.146z"/><path d="m33.5 26h-6c-.276 0-.5-.224-.5-.5v-3c0-.276.224-.5.5-.5s.5.224.5.5v2.5h5v-2.5c0-.276.224-.5.5-.5h5c.276 0 .5.224.5.5s-.224.5-.5.5h-4.5v2.5c0 .276-.224.5-.5.5z"/><path d="m42.5 27h-3c-.276 0-.5-.224-.5-.5s.224-.5.5-.5h3c.827 0 1.5-.673 1.5-1.5v-3c0-.827-.673-1.5-1.5-1.5h-2c-.276 0-.5-.224-.5-.5s.224-.5.5-.5h2c1.378 0 2.5 1.122 2.5 2.5v3c0 1.378-1.122 2.5-2.5 2.5z"/><path d="m32.5 35h-5c-3.584 0-6.5-2.916-6.5-6.5v-12c0-.276.224-.5.5-.5s.5.224.5.5v12c0 3.033 2.467 5.5 5.5 5.5h5c.276 0 .5.224.5.5s-.224.5-.5.5z"/><path d="m40.246 31.261c-.274 0-.566-.042-.873-.124-.267-.072-.425-.346-.353-.613.072-.266.349-.422.613-.353.592.16 1.045.106 1.393-.16.628-.482.974-1.729.974-3.511 0-.276.224-.5.5-.5s.5.224.5.5c0 2.162-.46 3.61-1.367 4.305-.396.304-.861.456-1.387.456z"/><path d="m44.416 21.45c-.066 0-.134-.013-.198-.041-.253-.109-.37-.404-.261-.657.516-1.195 1.043-2.634 1.043-4.252 0-7.415-6.234-7.5-6.5-7.5-.215 0-.406-.138-.474-.342-1.281-3.843-4.801-3.645-7.63-3.487-1.292.072-2.403.134-3.12-.224-3.062-1.531-6.493-1.809-8.74-.709-1.378.674-2.235 1.805-2.546 3.36-.485 2.426.005 4.755 1.345 6.389 1.064 1.298 2.543 2.013 4.165 2.013.276 0 .5.224.5.5s-.224.5-.5.5c-1.927 0-3.681-.845-4.938-2.379-1.531-1.867-2.097-4.498-1.552-7.219.37-1.851 1.438-3.255 3.087-4.062 2.518-1.232 6.297-.952 9.626.713.479.24 1.518.183 2.616.12 2.765-.154 6.908-.388 8.521 3.85 1.497.139 7.14 1.152 7.14 8.477 0 1.8-.569 3.359-1.125 4.648-.082.189-.266.302-.459.302z"/></g><g fill="#be6432"><path d="m38.5 15c-.224 0-.428-.151-.484-.379-.305-1.217-.828-2.04-1.555-2.445-.877-.489-1.795-.204-1.805-.201-.262.086-.543-.059-.629-.32-.085-.261.055-.542.315-.629.053-.018 1.322-.427 2.588.268.987.542 1.679 1.58 2.055 3.085.067.268-.096.539-.364.606-.04.01-.081.015-.121.015z"/><path d="m41.5 14c-.224 0-.428-.151-.484-.379-.305-1.217-.828-2.04-1.555-2.445-.877-.489-1.795-.204-1.805-.201-.26.087-.543-.059-.629-.32-.085-.261.055-.542.315-.629.054-.018 1.322-.427 2.588.268.987.542 1.679 1.58 2.055 3.085.067.268-.096.539-.364.606-.04.01-.081.015-.121.015z"/><path d="m35.5 10c-.128 0-.256-.049-.354-.146-.002-.003-.946-.854-3.646-.854-1.205 0-2.227-.113-3.125-.345-.268-.069-.428-.341-.359-.609s.343-.431.609-.359c.815.211 1.755.313 2.875.313 3.117 0 4.236 1.029 4.354 1.146.195.195.195.512 0 .707-.098.098-.226.147-.354.147z"/><path d="m26.5 8c-.128 0-.256-.049-.354-.146-.632-.631-1.566-1.118-2.777-1.446-.267-.072-.424-.347-.352-.613.071-.268.348-.427.613-.352 1.382.374 2.466.947 3.223 1.704.195.195.195.512 0 .707-.097.097-.225.146-.353.146z"/><path d="m31.5 12c-.075 0-.151-.017-.223-.053-1.87-.935-3.891.146-5.13-1.094-2.349-2.35-6.542-1.862-6.585-1.857-.274.04-.523-.161-.557-.435s.161-.523.435-.557c.192-.023 4.725-.547 7.415 2.143.75.75 2.779-.139 4.87.906.247.124.347.424.224.671-.09.175-.266.276-.449.276z"/><path d="m38.5 25h-2c-.276 0-.5-.224-.5-.5s.224-.5.5-.5h2c.276 0 .5.224.5.5s-.224.5-.5.5z"/><path d="m38.5 21h-2c-.276 0-.5-.224-.5-.5s.224-.5.5-.5h2c.276 0 .5.224.5.5s-.224.5-.5.5z"/><path d="m37.5 27h-1c-.276 0-.5-.224-.5-.5s.224-.5.5-.5h1c.276 0 .5.224.5.5s-.224.5-.5.5z"/></g><path d="m23.5 26h-4c-.276 0-.5-.224-.5-.5v-5c0-.276.224-.5.5-.5s.5.224.5.5v4.5h3.5c.276 0 .5.224.5.5s-.224.5-.5.5z" fill="#785ae6"/><path d="m25.5 28c-1.153 0-2.5-.393-2.5-1.5 0-1.064 1.71-4.538 2.053-5.224.124-.247.423-.346.671-.224.247.124.347.424.224.671-.809 1.618-1.948 4.169-1.948 4.777 0 .301.903.5 1.5.5.276 0 .5.224.5.5s-.224.5-.5.5z" fill="#785ae6"/></svg>